<svg width="1440" height="48" viewBox="0 0 1440 48" fill="none" xmlns="http://www.w3.org/2000/svg">
<path d="M0 0H1440V48H0V0Z" fill="#FF70DF"/>
<path d="M558.414 21.7717H556.422C556.365 21.445 556.26 21.1555 556.107 20.9034C555.955 20.6477 555.765 20.4311 555.537 20.2536C555.31 20.076 555.051 19.9428 554.76 19.854C554.472 19.7617 554.161 19.7156 553.827 19.7156C553.234 19.7156 552.709 19.8647 552.251 20.163C551.793 20.4577 551.434 20.891 551.175 21.4627C550.915 22.0309 550.786 22.7251 550.786 23.5455C550.786 24.38 550.915 25.0831 551.175 25.6548C551.438 26.223 551.796 26.6527 552.251 26.9439C552.709 27.2315 553.233 27.3754 553.822 27.3754C554.149 27.3754 554.454 27.3327 554.738 27.2475C555.026 27.1587 555.283 27.0291 555.511 26.8587C555.741 26.6882 555.935 26.4787 556.091 26.2301C556.251 25.9815 556.361 25.6974 556.422 25.3778L558.414 25.3885C558.339 25.907 558.178 26.3935 557.929 26.848C557.684 27.3026 557.363 27.7038 556.965 28.0518C556.567 28.3963 556.102 28.6662 555.569 28.8615C555.037 29.0533 554.445 29.1491 553.795 29.1491C552.837 29.1491 551.981 28.9272 551.228 28.4833C550.475 28.0394 549.882 27.3984 549.449 26.5604C549.016 25.7223 548.799 24.7173 548.799 23.5455C548.799 22.37 549.017 21.3651 549.454 20.5305C549.891 19.6925 550.486 19.0515 551.239 18.6076C551.991 18.1637 552.844 17.9418 553.795 17.9418C554.403 17.9418 554.967 18.027 555.489 18.1974C556.011 18.3679 556.477 18.6183 556.885 18.9485C557.293 19.2752 557.629 19.6765 557.892 20.1523C558.158 20.6246 558.332 21.1644 558.414 21.7717ZM563.707 29.1598C562.908 29.1598 562.216 28.984 561.63 28.6325C561.044 28.2809 560.589 27.7891 560.266 27.157C559.946 26.5249 559.787 25.7862 559.787 24.9411C559.787 24.0959 559.946 23.3555 560.266 22.7198C560.589 22.0842 561.044 21.5906 561.63 21.239C562.216 20.8874 562.908 20.7116 563.707 20.7116C564.506 20.7116 565.199 20.8874 565.785 21.239C566.37 21.5906 566.823 22.0842 567.143 22.7198C567.466 23.3555 567.628 24.0959 567.628 24.9411C567.628 25.7862 567.466 26.5249 567.143 27.157C566.823 27.7891 566.37 28.2809 565.785 28.6325C565.199 28.984 564.506 29.1598 563.707 29.1598ZM563.718 27.6151C564.151 27.6151 564.513 27.4961 564.804 27.2582C565.096 27.0167 565.312 26.6935 565.454 26.2887C565.6 25.8839 565.673 25.4329 565.673 24.9357C565.673 24.435 565.6 23.9822 565.454 23.5774C565.312 23.169 565.096 22.8441 564.804 22.6026C564.513 22.3612 564.151 22.2404 563.718 22.2404C563.274 22.2404 562.905 22.3612 562.61 22.6026C562.319 22.8441 562.1 23.169 561.955 23.5774C561.813 23.9822 561.742 24.435 561.742 24.9357C561.742 25.4329 561.813 25.8839 561.955 26.2887C562.1 26.6935 562.319 27.0167 562.61 27.2582C562.905 27.4961 563.274 27.6151 563.718 27.6151ZM569.264 32.0682V20.8182H571.161V22.1712H571.272C571.372 21.9723 571.512 21.761 571.693 21.5373C571.874 21.31 572.119 21.1165 572.428 20.9567C572.737 20.7933 573.131 20.7116 573.611 20.7116C574.243 20.7116 574.813 20.8732 575.321 21.1964C575.832 21.516 576.237 21.9901 576.535 22.6186C576.837 23.2436 576.988 24.0107 576.988 24.9197C576.988 25.8182 576.841 26.5817 576.546 27.2102C576.251 27.8388 575.85 28.3182 575.342 28.6484C574.834 28.9787 574.259 29.1438 573.616 29.1438C573.147 29.1438 572.759 29.0657 572.45 28.9094C572.141 28.7532 571.892 28.565 571.704 28.3448C571.519 28.1211 571.375 27.9098 571.272 27.7109H571.192V32.0682H569.264ZM571.155 24.9091C571.155 25.4382 571.23 25.9016 571.379 26.2994C571.532 26.6971 571.75 27.0078 572.034 27.2315C572.322 27.4517 572.67 27.5618 573.078 27.5618C573.504 27.5618 573.861 27.4482 574.149 27.2209C574.436 26.9901 574.653 26.6758 574.799 26.2781C574.948 25.8768 575.022 25.4205 575.022 24.9091C575.022 24.4013 574.95 23.9503 574.804 23.5561C574.658 23.1619 574.442 22.853 574.154 22.6293C573.866 22.4055 573.508 22.2937 573.078 22.2937C572.666 22.2937 572.316 22.402 572.029 22.6186C571.741 22.8352 571.523 23.1388 571.374 23.5295C571.228 23.9201 571.155 24.38 571.155 24.9091ZM578.639 32.0682V20.8182H580.536V22.1712H580.647C580.747 21.9723 580.887 21.761 581.068 21.5373C581.249 21.31 581.494 21.1165 581.803 20.9567C582.112 20.7933 582.506 20.7116 582.986 20.7116C583.618 20.7116 584.188 20.8732 584.696 21.1964C585.207 21.516 585.612 21.9901 585.91 22.6186C586.212 23.2436 586.363 24.0107 586.363 24.9197C586.363 25.8182 586.216 26.5817 585.921 27.2102C585.626 27.8388 585.225 28.3182 584.717 28.6484C584.209 28.9787 583.634 29.1438 582.991 29.1438C582.522 29.1438 582.134 29.0657 581.825 28.9094C581.516 28.7532 581.267 28.565 581.079 28.3448C580.894 28.1211 580.75 27.9098 580.647 27.7109H580.567V32.0682H578.639ZM580.53 24.9091C580.53 25.4382 580.605 25.9016 580.754 26.2994C580.907 26.6971 581.125 27.0078 581.409 27.2315C581.697 27.4517 582.045 27.5618 582.453 27.5618C582.879 27.5618 583.236 27.4482 583.524 27.2209C583.811 26.9901 584.028 26.6758 584.174 26.2781C584.323 25.8768 584.397 25.4205 584.397 24.9091C584.397 24.4013 584.325 23.9503 584.179 23.5561C584.033 23.1619 583.817 22.853 583.529 22.6293C583.241 22.4055 582.883 22.2937 582.453 22.2937C582.041 22.2937 581.691 22.402 581.404 22.6186C581.116 22.8352 580.898 23.1388 580.749 23.5295C580.603 23.9201 580.53 24.38 580.53 24.9091ZM588.934 32.0682C588.672 32.0682 588.428 32.0469 588.205 32.0043C587.984 31.9652 587.809 31.919 587.677 31.8658L588.125 30.3636C588.405 30.4453 588.656 30.4844 588.876 30.4808C589.096 30.4773 589.29 30.408 589.456 30.2731C589.627 30.1417 589.771 29.9215 589.888 29.6126L590.053 29.1705L587.086 20.8182H589.131L591.017 26.9972H591.102L592.993 20.8182H595.044L591.768 29.9908C591.616 30.424 591.413 30.7951 591.161 31.104C590.909 31.4165 590.6 31.6545 590.234 31.8178C589.872 31.9847 589.439 32.0682 588.934 32.0682ZM596.378 29V20.8182H598.248V22.1818H598.333C598.483 21.7095 598.738 21.3455 599.1 21.0898C599.466 20.8306 599.883 20.701 600.352 20.701C600.459 20.701 600.578 20.7063 600.709 20.717C600.844 20.7241 600.956 20.7365 601.045 20.7543V22.5281C600.963 22.4996 600.833 22.4748 600.656 22.4535C600.482 22.4286 600.313 22.4162 600.15 22.4162C599.798 22.4162 599.482 22.4925 599.202 22.6452C598.925 22.7944 598.706 23.0021 598.546 23.2685C598.387 23.5348 598.307 23.842 598.307 24.19V29H596.378ZM602.326 29V20.8182H604.254V29H602.326ZM603.295 19.657C602.99 19.657 602.727 19.5558 602.507 19.3533C602.287 19.1474 602.177 18.9006 602.177 18.6129C602.177 18.3217 602.287 18.0749 602.507 17.8725C602.727 17.6665 602.99 17.5636 603.295 17.5636C603.604 17.5636 603.867 17.6665 604.084 17.8725C604.304 18.0749 604.414 18.3217 604.414 18.6129C604.414 18.9006 604.304 19.1474 604.084 19.3533C603.867 19.5558 603.604 19.657 603.295 19.657ZM609.795 32.2386C609.103 32.2386 608.508 32.1445 608.011 31.9563C607.513 31.7717 607.114 31.5231 606.812 31.2106C606.51 30.8981 606.301 30.5518 606.184 30.1719L607.92 29.7511C607.998 29.9109 608.112 30.0689 608.261 30.2251C608.41 30.3849 608.611 30.5163 608.863 30.6193C609.119 30.7259 609.44 30.7791 609.827 30.7791C610.374 30.7791 610.827 30.646 611.185 30.3796C611.544 30.1168 611.723 29.6836 611.723 29.0799V27.5298H611.627C611.528 27.7287 611.382 27.9329 611.191 28.1424C611.002 28.3519 610.752 28.5277 610.44 28.6697C610.131 28.8118 609.742 28.8828 609.273 28.8828C608.645 28.8828 608.075 28.7354 607.563 28.4407C607.055 28.1424 606.651 27.6985 606.349 27.109C606.05 26.516 605.901 25.7738 605.901 24.8825C605.901 23.984 606.05 23.2259 606.349 22.608C606.651 21.9865 607.057 21.516 607.569 21.1964C608.08 20.8732 608.65 20.7116 609.278 20.7116C609.758 20.7116 610.152 20.7933 610.461 20.9567C610.773 21.1165 611.022 21.31 611.207 21.5373C611.391 21.761 611.532 21.9723 611.627 22.1712H611.734V20.8182H613.636V29.1332C613.636 29.8327 613.469 30.4116 613.135 30.8697C612.801 31.3278 612.345 31.6705 611.766 31.8977C611.187 32.125 610.53 32.2386 609.795 32.2386ZM609.811 27.37C610.219 27.37 610.567 27.2706 610.855 27.0717C611.143 26.8729 611.361 26.587 611.51 26.2141C611.659 25.8413 611.734 25.3938 611.734 24.8718C611.734 24.3569 611.659 23.9059 611.51 23.5188C611.365 23.1317 611.148 22.8317 610.86 22.6186C610.576 22.402 610.227 22.2937 609.811 22.2937C609.381 22.2937 609.023 22.4055 608.735 22.6293C608.447 22.853 608.231 23.1602 608.085 23.5508C607.94 23.9379 607.867 24.3782 607.867 24.8718C607.867 25.3725 607.94 25.8111 608.085 26.1875C608.234 26.5604 608.453 26.8516 608.74 27.0611C609.032 27.267 609.388 27.37 609.811 27.37ZM617.54 24.206V29H615.612V18.0909H617.498V22.2085H617.593C617.785 21.7468 618.082 21.3828 618.483 21.1165C618.888 20.8466 619.403 20.7116 620.028 20.7116C620.596 20.7116 621.091 20.8306 621.514 21.0685C621.936 21.3065 622.263 21.6545 622.494 22.1126C622.728 22.5707 622.846 23.13 622.846 23.7905V29H620.917V24.0888C620.917 23.5384 620.775 23.1104 620.491 22.805C620.211 22.4961 619.816 22.3416 619.309 22.3416C618.968 22.3416 618.662 22.4162 618.392 22.5653C618.126 22.7109 617.917 22.9222 617.764 23.1992C617.615 23.4762 617.54 23.8118 617.54 24.206ZM628.897 20.8182V22.3097H624.193V20.8182H628.897ZM625.354 18.858H627.283V26.5391C627.283 26.7983 627.322 26.9972 627.4 27.1357C627.482 27.2706 627.588 27.3629 627.719 27.4126C627.851 27.4624 627.996 27.4872 628.156 27.4872C628.277 27.4872 628.387 27.4783 628.487 27.4606C628.589 27.4428 628.668 27.4268 628.721 27.4126L629.046 28.9201C628.943 28.9556 628.795 28.9947 628.604 29.0373C628.415 29.0799 628.185 29.1048 627.911 29.1119C627.428 29.1261 626.993 29.0533 626.606 28.8935C626.219 28.7301 625.912 28.478 625.685 28.1371C625.461 27.7962 625.351 27.37 625.354 26.8587V18.858ZM634.209 29V27.5724L637.996 23.8597C638.358 23.494 638.66 23.169 638.902 22.8849C639.143 22.6009 639.324 22.3256 639.445 22.0593C639.566 21.793 639.626 21.5089 639.626 21.207C639.626 20.8626 639.548 20.5678 639.392 20.3228C639.235 20.0742 639.021 19.8825 638.747 19.7475C638.474 19.6126 638.163 19.5451 637.815 19.5451C637.456 19.5451 637.142 19.6197 636.872 19.7688C636.602 19.9144 636.393 20.1222 636.244 20.392C636.098 20.6619 636.025 20.9833 636.025 21.3562H634.145C634.145 20.6637 634.303 20.0618 634.619 19.5504C634.935 19.0391 635.37 18.6431 635.924 18.3626C636.481 18.082 637.121 17.9418 637.842 17.9418C638.573 17.9418 639.216 18.0785 639.77 18.3519C640.324 18.6254 640.753 19 641.059 19.4759C641.368 19.9517 641.522 20.495 641.522 21.1058C641.522 21.5142 641.444 21.9155 641.288 22.3097C641.132 22.7038 640.856 23.1406 640.462 23.62C640.072 24.0994 639.523 24.68 638.816 25.3619L636.936 27.2741V27.3487H641.687V29H634.209ZM647.557 29.2077C646.68 29.2077 645.927 28.9858 645.299 28.5419C644.674 28.0945 644.193 27.4499 643.855 26.6083C643.522 25.7631 643.355 24.7457 643.355 23.5561C643.358 22.3665 643.527 21.3544 643.861 20.5199C644.198 19.6818 644.679 19.0426 645.304 18.6023C645.933 18.1619 646.684 17.9418 647.557 17.9418C648.431 17.9418 649.182 18.1619 649.811 18.6023C650.439 19.0426 650.92 19.6818 651.254 20.5199C651.592 21.358 651.76 22.37 651.76 23.5561C651.76 24.7493 651.592 25.7685 651.254 26.6136C650.92 27.4553 650.439 28.098 649.811 28.5419C649.186 28.9858 648.435 29.2077 647.557 29.2077ZM647.557 27.5405C648.239 27.5405 648.777 27.2049 649.171 26.5337C649.569 25.859 649.768 24.8665 649.768 23.5561C649.768 22.6896 649.677 21.9616 649.496 21.3722C649.315 20.7827 649.06 20.3388 648.729 20.0405C648.399 19.7386 648.008 19.5877 647.557 19.5877C646.879 19.5877 646.343 19.9251 645.949 20.5998C645.555 21.271 645.356 22.2564 645.352 23.5561C645.349 24.4261 645.436 25.1577 645.613 25.7507C645.794 26.3437 646.05 26.7912 646.38 27.093C646.71 27.3913 647.103 27.5405 647.557 27.5405ZM653.53 29V27.5724L657.317 23.8597C657.68 23.494 657.981 23.169 658.223 22.8849C658.464 22.6009 658.645 22.3256 658.766 22.0593C658.887 21.793 658.947 21.5089 658.947 21.207C658.947 20.8626 658.869 20.5678 658.713 20.3228C658.557 20.0742 658.342 19.8825 658.068 19.7475C657.795 19.6126 657.484 19.5451 657.136 19.5451C656.778 19.5451 656.463 19.6197 656.193 19.7688C655.923 19.9144 655.714 20.1222 655.565 20.392C655.419 20.6619 655.346 20.9833 655.346 21.3562H653.466C653.466 20.6637 653.624 20.0618 653.94 19.5504C654.256 19.0391 654.691 18.6431 655.245 18.3626C655.803 18.082 656.442 17.9418 657.163 17.9418C657.894 17.9418 658.537 18.0785 659.091 18.3519C659.645 18.6254 660.075 19 660.38 19.4759C660.689 19.9517 660.844 20.495 660.844 21.1058C660.844 21.5142 660.765 21.9155 660.609 22.3097C660.453 22.7038 660.178 23.1406 659.784 23.62C659.393 24.0994 658.844 24.68 658.138 25.3619L656.257 27.2741V27.3487H661.009V29H653.53ZM666.762 29.1491C665.994 29.1491 665.313 29.0178 664.716 28.755C664.123 28.4922 663.654 28.1264 663.31 27.6577C662.965 27.1889 662.782 26.6474 662.761 26.033H664.764C664.782 26.3278 664.879 26.5852 665.057 26.8054C665.235 27.022 665.471 27.1907 665.765 27.3114C666.06 27.4322 666.39 27.4925 666.756 27.4925C667.147 27.4925 667.493 27.4251 667.795 27.2901C668.097 27.1516 668.333 26.9599 668.503 26.7148C668.674 26.4698 668.757 26.1875 668.754 25.8679C668.757 25.5376 668.672 25.2464 668.498 24.9943C668.324 24.7422 668.072 24.5451 667.742 24.4031C667.415 24.261 667.021 24.19 666.559 24.19H665.595V22.6665H666.559C666.939 22.6665 667.271 22.6009 667.555 22.4695C667.843 22.3381 668.068 22.1534 668.232 21.9155C668.395 21.674 668.475 21.3952 668.471 21.0792C668.475 20.7702 668.406 20.5021 668.264 20.2749C668.125 20.044 667.928 19.8647 667.672 19.7369C667.42 19.609 667.124 19.5451 666.783 19.5451C666.449 19.5451 666.14 19.6055 665.856 19.7262C665.572 19.8469 665.343 20.0192 665.169 20.2429C664.995 20.4631 664.903 20.7259 664.892 21.0312H662.99C663.004 20.4205 663.18 19.8842 663.518 19.4226C663.858 18.9574 664.313 18.5952 664.881 18.3359C665.449 18.0732 666.087 17.9418 666.794 17.9418C667.521 17.9418 668.154 18.0785 668.69 18.3519C669.23 18.6218 669.647 18.9858 669.942 19.4439C670.236 19.902 670.384 20.408 670.384 20.962C670.387 21.5763 670.206 22.0913 669.84 22.5067C669.478 22.9222 669.002 23.1939 668.413 23.3217V23.407C669.18 23.5135 669.768 23.7976 670.176 24.2592C670.588 24.7173 670.792 25.2873 670.789 25.9691C670.789 26.5799 670.615 27.1268 670.267 27.6097C669.922 28.0891 669.446 28.4656 668.839 28.739C668.235 29.0124 667.543 29.1491 666.762 29.1491ZM677.597 22.7518V24.3391H672.686V22.7518H677.597ZM681.112 29H679.002L682.843 18.0909H685.282L689.128 29H687.019L684.105 20.3281H684.02L681.112 29ZM681.181 24.7227H686.934V26.31H681.181V24.7227ZM692.408 18.0909V29H690.48V18.0909H692.408ZM696.319 18.0909V29H694.391V18.0909H696.319ZM702.108 29V18.0909H706.199C707.037 18.0909 707.74 18.2365 708.309 18.5277C708.88 18.8189 709.312 19.2273 709.603 19.7528C709.898 20.2749 710.045 20.8839 710.045 21.5799C710.045 22.2795 709.896 22.8867 709.598 23.4016C709.303 23.913 708.868 24.3089 708.293 24.5895C707.717 24.8665 707.011 25.005 706.172 25.005H703.259V23.3643H705.906C706.396 23.3643 706.797 23.2969 707.11 23.1619C707.422 23.0234 707.653 22.8228 707.802 22.56C707.955 22.2937 708.032 21.967 708.032 21.5799C708.032 21.1928 707.955 20.8626 707.802 20.5891C707.65 20.3121 707.417 20.1026 707.105 19.9606C706.792 19.815 706.389 19.7422 705.896 19.7422H704.084V29H702.108ZM707.744 24.0568L710.445 29H708.239L705.587 24.0568H707.744ZM711.779 29V20.8182H713.707V29H711.779ZM712.748 19.657C712.443 19.657 712.18 19.5558 711.96 19.3533C711.74 19.1474 711.63 18.9006 711.63 18.6129C711.63 18.3217 711.74 18.0749 711.96 17.8725C712.18 17.6665 712.443 17.5636 712.748 17.5636C713.057 17.5636 713.32 17.6665 713.537 17.8725C713.757 18.0749 713.867 18.3217 713.867 18.6129C713.867 18.9006 713.757 19.1474 713.537 19.3533C713.32 19.5558 713.057 19.657 712.748 19.657ZM719.248 32.2386C718.556 32.2386 717.961 32.1445 717.464 31.9563C716.967 31.7717 716.567 31.5231 716.265 31.2106C715.963 30.8981 715.754 30.5518 715.637 30.1719L717.373 29.7511C717.451 29.9109 717.565 30.0689 717.714 30.2251C717.863 30.3849 718.064 30.5163 718.316 30.6193C718.572 30.7259 718.893 30.7791 719.28 30.7791C719.827 30.7791 720.28 30.646 720.638 30.3796C720.997 30.1168 721.176 29.6836 721.176 29.0799V27.5298H721.081C720.981 27.7287 720.836 27.9329 720.644 28.1424C720.456 28.3519 720.205 28.5277 719.893 28.6697C719.584 28.8118 719.195 28.8828 718.726 28.8828C718.098 28.8828 717.528 28.7354 717.016 28.4407C716.509 28.1424 716.104 27.6985 715.802 27.109C715.504 26.516 715.354 25.7738 715.354 24.8825C715.354 23.984 715.504 23.2259 715.802 22.608C716.104 21.9865 716.51 21.516 717.022 21.1964C717.533 20.8732 718.103 20.7116 718.732 20.7116C719.211 20.7116 719.605 20.7933 719.914 20.9567C720.227 21.1165 720.475 21.31 720.66 21.5373C720.844 21.761 720.985 21.9723 721.081 22.1712H721.187V20.8182H723.089V29.1332C723.089 29.8327 722.922 30.4116 722.588 30.8697C722.254 31.3278 721.798 31.6705 721.219 31.8977C720.64 32.125 719.983 32.2386 719.248 32.2386ZM719.264 27.37C719.673 27.37 720.021 27.2706 720.308 27.0717C720.596 26.8729 720.814 26.587 720.963 26.2141C721.113 25.8413 721.187 25.3938 721.187 24.8718C721.187 24.3569 721.113 23.9059 720.963 23.5188C720.818 23.1317 720.601 22.8317 720.314 22.6186C720.029 22.402 719.68 22.2937 719.264 22.2937C718.835 22.2937 718.476 22.4055 718.188 22.6293C717.901 22.853 717.684 23.1602 717.538 23.5508C717.393 23.9379 717.32 24.3782 717.32 24.8718C717.32 25.3725 717.393 25.8111 717.538 26.1875C717.688 26.5604 717.906 26.8516 718.194 27.0611C718.485 27.267 718.842 27.37 719.264 27.37ZM726.993 24.206V29H725.065V18.0909H726.951V22.2085H727.047C727.238 21.7468 727.535 21.3828 727.936 21.1165C728.341 20.8466 728.856 20.7116 729.481 20.7116C730.049 20.7116 730.544 20.8306 730.967 21.0685C731.39 21.3065 731.716 21.6545 731.947 22.1126C732.181 22.5707 732.299 23.13 732.299 23.7905V29H730.37V24.0888C730.37 23.5384 730.228 23.1104 729.944 22.805C729.664 22.4961 729.27 22.3416 728.762 22.3416C728.421 22.3416 728.115 22.4162 727.846 22.5653C727.579 22.7109 727.37 22.9222 727.217 23.1992C727.068 23.4762 726.993 23.8118 726.993 24.206ZM738.35 20.8182V22.3097H733.646V20.8182H738.35ZM734.808 18.858H736.736V26.5391C736.736 26.7983 736.775 26.9972 736.853 27.1357C736.935 27.2706 737.041 27.3629 737.173 27.4126C737.304 27.4624 737.45 27.4872 737.609 27.4872C737.73 27.4872 737.84 27.4783 737.94 27.4606C738.043 27.4428 738.121 27.4268 738.174 27.4126L738.499 28.9201C738.396 28.9556 738.249 28.9947 738.057 29.0373C737.869 29.0799 737.638 29.1048 737.364 29.1119C736.881 29.1261 736.446 29.0533 736.059 28.8935C735.672 28.7301 735.365 28.478 735.138 28.1371C734.914 27.7962 734.804 27.37 734.808 26.8587V18.858ZM743.768 29V18.0909H747.859C748.697 18.0909 749.4 18.2365 749.969 18.5277C750.54 18.8189 750.972 19.2273 751.263 19.7528C751.558 20.2749 751.705 20.8839 751.705 21.5799C751.705 22.2795 751.556 22.8867 751.258 23.4016C750.963 23.913 750.528 24.3089 749.953 24.5895C749.377 24.8665 748.671 25.005 747.833 25.005H744.919V23.3643H747.566C748.056 23.3643 748.458 23.2969 748.77 23.1619C749.083 23.0234 749.313 22.8228 749.463 22.56C749.615 22.2937 749.692 21.967 749.692 21.5799C749.692 21.1928 749.615 20.8626 749.463 20.5891C749.31 20.3121 749.077 20.1026 748.765 19.9606C748.452 19.815 748.049 19.7422 747.556 19.7422H745.745V29H743.768ZM749.404 24.0568L752.105 29H749.899L747.247 24.0568H749.404ZM756.944 29.1598C756.124 29.1598 755.415 28.9893 754.819 28.6484C754.226 28.304 753.769 27.8175 753.45 27.1889C753.13 26.5568 752.97 25.8129 752.97 24.957C752.97 24.1154 753.13 23.3768 753.45 22.7411C753.773 22.1019 754.224 21.6048 754.803 21.2496C755.381 20.891 756.062 20.7116 756.843 20.7116C757.347 20.7116 757.823 20.7933 758.27 20.9567C758.721 21.1165 759.119 21.3651 759.464 21.7024C759.812 22.0398 760.085 22.4695 760.284 22.9915C760.483 23.5099 760.582 24.1278 760.582 24.8452V25.4364H753.876V24.1367H758.734C758.73 23.7674 758.65 23.4389 758.494 23.1513C758.338 22.8601 758.119 22.631 757.839 22.4641C757.562 22.2972 757.239 22.2138 756.869 22.2138C756.475 22.2138 756.129 22.3097 755.831 22.5014C755.532 22.6896 755.3 22.9382 755.133 23.2472C754.97 23.5526 754.886 23.8881 754.883 24.2539V25.3885C754.883 25.8643 754.97 26.2727 755.144 26.6136C755.318 26.951 755.561 27.2102 755.873 27.3913C756.186 27.5689 756.552 27.6577 756.971 27.6577C757.251 27.6577 757.505 27.6186 757.732 27.5405C757.96 27.4588 758.157 27.3398 758.324 27.1836C758.491 27.0273 758.617 26.8338 758.702 26.603L760.502 26.8054C760.389 27.2812 760.172 27.6967 759.852 28.0518C759.536 28.4034 759.131 28.6768 758.638 28.8722C758.144 29.0639 757.58 29.1598 756.944 29.1598ZM768.68 22.9808L766.922 23.1726C766.873 22.995 766.786 22.8281 766.661 22.6719C766.54 22.5156 766.377 22.3896 766.171 22.2937C765.965 22.1978 765.713 22.1499 765.415 22.1499C765.013 22.1499 764.676 22.2369 764.403 22.4109C764.133 22.5849 764 22.8104 764.003 23.0874C764 23.3253 764.087 23.5188 764.264 23.668C764.445 23.8171 764.744 23.9396 765.159 24.0355L766.555 24.3338C767.329 24.5007 767.904 24.7653 768.281 25.1275C768.661 25.4897 768.852 25.9638 768.856 26.5497C768.852 27.0646 768.701 27.5192 768.403 27.9134C768.108 28.304 767.698 28.6094 767.173 28.8295C766.647 29.0497 766.043 29.1598 765.362 29.1598C764.36 29.1598 763.554 28.9503 762.943 28.5312C762.332 28.1087 761.968 27.521 761.851 26.7681L763.732 26.587C763.817 26.9563 763.998 27.2351 764.275 27.4233C764.552 27.6115 764.912 27.7056 765.356 27.7056C765.814 27.7056 766.182 27.6115 766.459 27.4233C766.739 27.2351 766.88 27.0025 766.88 26.7255C766.88 26.4911 766.789 26.2976 766.608 26.1449C766.43 25.9922 766.153 25.875 765.777 25.7933L764.381 25.5004C763.597 25.337 763.016 25.0618 762.64 24.6747C762.263 24.2841 762.077 23.7905 762.08 23.1939C762.077 22.6896 762.213 22.2528 762.49 21.8835C762.771 21.5107 763.16 21.223 763.657 21.0206C764.158 20.8146 764.735 20.7116 765.388 20.7116C766.347 20.7116 767.102 20.9158 767.652 21.3242C768.206 21.7326 768.549 22.2848 768.68 22.9808ZM774.068 29.1598C773.248 29.1598 772.539 28.9893 771.943 28.6484C771.35 28.304 770.893 27.8175 770.574 27.1889C770.254 26.5568 770.094 25.8129 770.094 24.957C770.094 24.1154 770.254 23.3768 770.574 22.7411C770.897 22.1019 771.348 21.6048 771.927 21.2496C772.506 20.891 773.186 20.7116 773.967 20.7116C774.471 20.7116 774.947 20.7933 775.394 20.9567C775.845 21.1165 776.243 21.3651 776.588 21.7024C776.936 22.0398 777.209 22.4695 777.408 22.9915C777.607 23.5099 777.706 24.1278 777.706 24.8452V25.4364H771V24.1367H775.858C775.854 23.7674 775.774 23.4389 775.618 23.1513C775.462 22.8601 775.243 22.631 774.963 22.4641C774.686 22.2972 774.363 22.2138 773.993 22.2138C773.599 22.2138 773.253 22.3097 772.955 22.5014C772.656 22.6896 772.424 22.9382 772.257 23.2472C772.094 23.5526 772.01 23.8881 772.007 24.2539V25.3885C772.007 25.8643 772.094 26.2727 772.268 26.6136C772.442 26.951 772.685 27.2102 772.997 27.3913C773.31 27.5689 773.676 27.6577 774.095 27.6577C774.375 27.6577 774.629 27.6186 774.856 27.5405C775.084 27.4588 775.281 27.3398 775.448 27.1836C775.615 27.0273 775.741 26.8338 775.826 26.603L777.626 26.8054C777.513 27.2812 777.296 27.6967 776.976 28.0518C776.66 28.4034 776.256 28.6768 775.762 28.8722C775.268 29.0639 774.704 29.1598 774.068 29.1598ZM779.337 29V20.8182H781.207V22.1818H781.292C781.441 21.7095 781.697 21.3455 782.059 21.0898C782.425 20.8306 782.842 20.701 783.311 20.701C783.418 20.701 783.537 20.7063 783.668 20.717C783.803 20.7241 783.915 20.7365 784.004 20.7543V22.5281C783.922 22.4996 783.792 22.4748 783.615 22.4535C783.441 22.4286 783.272 22.4162 783.109 22.4162C782.757 22.4162 782.441 22.4925 782.161 22.6452C781.884 22.7944 781.665 23.0021 781.505 23.2685C781.346 23.5348 781.266 23.842 781.266 24.19V29H779.337ZM792.842 20.8182L789.928 29H787.798L784.884 20.8182H786.94L788.82 26.896H788.906L790.791 20.8182H792.842ZM797.52 29.1598C796.7 29.1598 795.991 28.9893 795.395 28.6484C794.802 28.304 794.345 27.8175 794.026 27.1889C793.706 26.5568 793.546 25.8129 793.546 24.957C793.546 24.1154 793.706 23.3768 794.026 22.7411C794.349 22.1019 794.8 21.6048 795.379 21.2496C795.958 20.891 796.638 20.7116 797.419 20.7116C797.923 20.7116 798.399 20.7933 798.847 20.9567C799.297 21.1165 799.695 21.3651 800.04 21.7024C800.388 22.0398 800.661 22.4695 800.86 22.9915C801.059 23.5099 801.158 24.1278 801.158 24.8452V25.4364H794.452V24.1367H799.31C799.306 23.7674 799.226 23.4389 799.07 23.1513C798.914 22.8601 798.696 22.631 798.415 22.4641C798.138 22.2972 797.815 22.2138 797.446 22.2138C797.051 22.2138 796.705 22.3097 796.407 22.5014C796.109 22.6896 795.876 22.9382 795.709 23.2472C795.546 23.5526 795.462 23.8881 795.459 24.2539V25.3885C795.459 25.8643 795.546 26.2727 795.72 26.6136C795.894 26.951 796.137 27.2102 796.449 27.3913C796.762 27.5689 797.128 27.6577 797.547 27.6577C797.827 27.6577 798.081 27.6186 798.309 27.5405C798.536 27.4588 798.733 27.3398 798.9 27.1836C799.067 27.0273 799.193 26.8338 799.278 26.603L801.078 26.8054C800.965 27.2812 800.748 27.6967 800.429 28.0518C800.112 28.4034 799.708 28.6768 799.214 28.8722C798.72 29.0639 798.156 29.1598 797.52 29.1598ZM805.826 29.1438C805.183 29.1438 804.608 28.9787 804.1 28.6484C803.592 28.3182 803.191 27.8388 802.896 27.2102C802.601 26.5817 802.454 25.8182 802.454 24.9197C802.454 24.0107 802.603 23.2436 802.901 22.6186C803.203 21.9901 803.61 21.516 804.121 21.1964C804.633 20.8732 805.203 20.7116 805.831 20.7116C806.311 20.7116 806.705 20.7933 807.014 20.9567C807.323 21.1165 807.568 21.31 807.749 21.5373C807.93 21.761 808.07 21.9723 808.17 22.1712H808.249V18.0909H810.183V29H808.287V27.7109H808.17C808.07 27.9098 807.926 28.1211 807.738 28.3448C807.55 28.565 807.301 28.7532 806.992 28.9094C806.683 29.0657 806.295 29.1438 805.826 29.1438ZM806.364 27.5618C806.772 27.5618 807.12 27.4517 807.408 27.2315C807.695 27.0078 807.914 26.6971 808.063 26.2994C808.212 25.9016 808.287 25.4382 808.287 24.9091C808.287 24.38 808.212 23.9201 808.063 23.5295C807.917 23.1388 807.701 22.8352 807.413 22.6186C807.129 22.402 806.779 22.2937 806.364 22.2937C805.934 22.2937 805.575 22.4055 805.288 22.6293C805 22.853 804.784 23.1619 804.638 23.5561C804.492 23.9503 804.42 24.4013 804.42 24.9091C804.42 25.4205 804.492 25.8768 804.638 26.2781C804.787 26.6758 805.006 26.9901 805.293 27.2209C805.584 27.4482 805.941 27.5618 806.364 27.5618ZM817.197 23.6626V25.25H812.286V23.6626H817.197ZM825.239 21.0898C825.189 20.6246 824.98 20.2624 824.61 20.0032C824.245 19.744 823.769 19.6143 823.183 19.6143C822.771 19.6143 822.418 19.6765 822.123 19.8008C821.828 19.9251 821.603 20.0937 821.446 20.3068C821.29 20.5199 821.21 20.7631 821.207 21.0366C821.207 21.2638 821.258 21.4609 821.361 21.6278C821.468 21.7947 821.612 21.9368 821.793 22.054C821.974 22.1676 822.174 22.2635 822.395 22.3416C822.615 22.4197 822.837 22.4854 823.06 22.5387L824.083 22.7944C824.495 22.8903 824.891 23.0199 825.271 23.1832C825.654 23.3466 825.997 23.5526 826.299 23.8011C826.604 24.0497 826.846 24.3498 827.023 24.7013C827.201 25.0529 827.29 25.4648 827.29 25.9371C827.29 26.5763 827.126 27.1392 826.8 27.6257C826.473 28.1087 826.001 28.4869 825.383 28.7603C824.768 29.0302 824.025 29.1651 823.151 29.1651C822.302 29.1651 821.565 29.0337 820.94 28.771C820.319 28.5082 819.832 28.1246 819.481 27.6204C819.133 27.1161 818.945 26.5018 818.916 25.7773H820.86C820.889 26.1573 821.006 26.4734 821.212 26.7255C821.418 26.9776 821.686 27.1658 822.016 27.2901C822.35 27.4144 822.723 27.4766 823.135 27.4766C823.565 27.4766 823.941 27.4126 824.264 27.2848C824.591 27.1534 824.847 26.9723 825.031 26.7415C825.216 26.5071 825.31 26.2337 825.314 25.9212C825.31 25.6371 825.227 25.4027 825.063 25.218C824.9 25.0298 824.671 24.8736 824.376 24.7493C824.085 24.6214 823.744 24.5078 823.353 24.4084L822.112 24.0888C821.214 23.858 820.504 23.5082 819.982 23.0394C819.463 22.5671 819.204 21.9403 819.204 21.1591C819.204 20.5163 819.378 19.9535 819.726 19.4705C820.077 18.9876 820.555 18.6129 821.159 18.3466C821.762 18.0767 822.446 17.9418 823.21 17.9418C823.984 17.9418 824.662 18.0767 825.244 18.3466C825.83 18.6129 826.29 18.984 826.624 19.4599C826.958 19.9322 827.13 20.4755 827.141 21.0898H825.239ZM829.052 29V18.0909H836.147V19.7475H831.028V22.7092H835.779V24.3658H831.028V27.3434H836.189V29H829.052ZM838.163 29V18.0909H840.139V22.7092H845.194V18.0909H847.176V29H845.194V24.3658H840.139V29H838.163ZM851.301 18.0909V29H849.325V18.0909H851.301ZM857.745 18.0909H859.705V25.7614C859.702 26.4645 859.553 27.07 859.258 27.5778C858.963 28.082 858.551 28.4709 858.022 28.7443C857.497 29.0142 856.884 29.1491 856.184 29.1491C855.545 29.1491 854.97 29.0355 854.459 28.8082C853.951 28.5774 853.548 28.2365 853.249 27.7855C852.951 27.3345 852.802 26.7734 852.802 26.1023H854.768C854.771 26.397 854.835 26.6509 854.959 26.864C855.087 27.0771 855.263 27.2404 855.487 27.354C855.71 27.4677 855.968 27.5245 856.259 27.5245C856.575 27.5245 856.843 27.4588 857.063 27.3274C857.284 27.1925 857.45 26.9936 857.564 26.7308C857.681 26.468 857.742 26.1449 857.745 25.7614V18.0909ZM863.25 29H861.141L864.982 18.0909H867.421L871.267 29H869.158L866.244 20.3281H866.159L863.25 29ZM863.32 24.7227H869.072V26.31H863.32V24.7227ZM872.704 29V18.0909H876.88C877.668 18.0909 878.324 18.2152 878.846 18.4638C879.371 18.7088 879.764 19.0444 880.023 19.4705C880.286 19.8967 880.417 20.3796 880.417 20.9194C880.417 21.3633 880.332 21.7433 880.161 22.0593C879.991 22.3718 879.762 22.6257 879.474 22.821C879.187 23.0163 878.865 23.1566 878.51 23.2418V23.3484C878.897 23.3697 879.268 23.4886 879.623 23.7053C879.982 23.9183 880.275 24.2202 880.502 24.6108C880.729 25.0014 880.843 25.4737 880.843 26.0277C880.843 26.5923 880.706 27.1001 880.433 27.5511C880.16 27.9986 879.748 28.3519 879.197 28.6112C878.647 28.8704 877.954 29 877.12 29H872.704ZM874.68 27.3487H876.805C877.523 27.3487 878.04 27.212 878.356 26.9386C878.675 26.6616 878.835 26.3065 878.835 25.8732C878.835 25.5501 878.755 25.2589 878.595 24.9996C878.435 24.7369 878.208 24.5309 877.913 24.3817C877.619 24.229 877.267 24.1527 876.859 24.1527H874.68V27.3487ZM874.68 22.7305H876.635C876.976 22.7305 877.283 22.6683 877.557 22.544C877.83 22.4162 878.045 22.2369 878.201 22.006C878.361 21.7717 878.441 21.4947 878.441 21.1751C878.441 20.7525 878.292 20.4045 877.993 20.131C877.699 19.8576 877.26 19.7209 876.678 19.7209H874.68V22.7305Z" fill="black"/>
</svg>
