<svg width="240" height="36" viewBox="0 0 240 36" fill="none" xmlns="http://www.w3.org/2000/svg">
<path d="M5.26833 24H1.75271L8.15363 5.81818H12.2197L18.6295 24H15.1139L10.2577 9.54688H10.1156L5.26833 24ZM5.38374 16.8711H14.9718V19.5167H5.38374V16.8711ZM21.0243 24V5.81818H24.318V14.1722H24.5399L31.6333 5.81818H35.655L28.6237 13.9769L35.7171 24H31.7576L26.3332 16.2053L24.318 18.5845V24H21.0243ZM47.7266 10.8164C47.6437 10.0411 47.2946 9.43738 46.679 9.00533C46.0694 8.57327 45.2763 8.35724 44.2998 8.35724C43.6132 8.35724 43.0243 8.46082 42.5331 8.66797C42.0418 8.87512 41.666 9.15625 41.4056 9.51136C41.1452 9.86648 41.012 10.2719 41.0061 10.7276C41.0061 11.1064 41.0919 11.4349 41.2635 11.7131C41.4411 11.9912 41.6808 12.228 41.9826 12.4233C42.2845 12.6127 42.6189 12.7725 42.9858 12.9027C43.3528 13.0329 43.7227 13.1424 44.0956 13.2312L45.8001 13.6573C46.4867 13.8171 47.1466 14.0331 47.7799 14.3054C48.4191 14.5777 48.9902 14.9209 49.4933 15.3352C50.0023 15.7495 50.4048 16.2496 50.7007 16.8356C50.9966 17.4215 51.1446 18.1081 51.1446 18.8952C51.1446 19.9606 50.8723 20.8987 50.3278 21.7095C49.7833 22.5144 48.9961 23.1448 47.9663 23.6005C46.9424 24.0503 45.7025 24.2752 44.2465 24.2752C42.832 24.2752 41.6039 24.0562 40.5622 23.6183C39.5264 23.1803 38.7156 22.5411 38.1297 21.7006C37.5496 20.8602 37.236 19.8363 37.1886 18.6289H40.429C40.4764 19.2622 40.6717 19.7889 41.015 20.2092C41.3582 20.6294 41.8051 20.9431 42.3555 21.1502C42.9119 21.3574 43.5333 21.4609 44.2199 21.4609C44.936 21.4609 45.5634 21.3544 46.102 21.1413C46.6465 20.9223 47.0726 20.6205 47.3804 20.2358C47.6881 19.8452 47.845 19.3894 47.8509 18.8686C47.845 18.3951 47.7059 18.0045 47.4336 17.6967C47.1614 17.383 46.7796 17.1226 46.2884 16.9155C45.8031 16.7024 45.2349 16.513 44.5839 16.3473L42.5153 15.8146C41.0179 15.4299 39.8342 14.8469 38.9642 14.0657C38.1001 13.2785 37.668 12.2339 37.668 10.9318C37.668 9.86056 37.958 8.92247 38.538 8.11754C39.124 7.31262 39.92 6.68821 40.9262 6.24432C41.9323 5.79451 43.0717 5.5696 44.3441 5.5696C45.6344 5.5696 46.7648 5.79451 47.7355 6.24432C48.712 6.68821 49.4785 7.3067 50.0348 8.09979C50.5912 8.88695 50.8782 9.79249 50.896 10.8164H47.7266ZM63.962 10.8164C63.8791 10.0411 63.5299 9.43738 62.9144 9.00533C62.3048 8.57327 61.5117 8.35724 60.5351 8.35724C59.8486 8.35724 59.2597 8.46082 58.7684 8.66797C58.2772 8.87512 57.9014 9.15625 57.6409 9.51136C57.3805 9.86648 57.2474 10.2719 57.2414 10.7276C57.2414 11.1064 57.3273 11.4349 57.4989 11.7131C57.6764 11.9912 57.9161 12.228 58.218 12.4233C58.5198 12.6127 58.8542 12.7725 59.2212 12.9027C59.5881 13.0329 59.9581 13.1424 60.3309 13.2312L62.0355 13.6573C62.722 13.8171 63.3819 14.0331 64.0152 14.3054C64.6544 14.5777 65.2256 14.9209 65.7286 15.3352C66.2376 15.7495 66.6401 16.2496 66.936 16.8356C67.232 17.4215 67.3799 18.1081 67.3799 18.8952C67.3799 19.9606 67.1077 20.8987 66.5632 21.7095C66.0187 22.5144 65.2315 23.1448 64.2017 23.6005C63.1777 24.0503 61.9378 24.2752 60.4818 24.2752C59.0673 24.2752 57.8392 24.0562 56.7975 23.6183C55.7618 23.1803 54.9509 22.5411 54.365 21.7006C53.785 20.8602 53.4713 19.8363 53.424 18.6289H56.6644C56.7117 19.2622 56.907 19.7889 57.2503 20.2092C57.5936 20.6294 58.0404 20.9431 58.5909 21.1502C59.1472 21.3574 59.7687 21.4609 60.4552 21.4609C61.1714 21.4609 61.7987 21.3544 62.3373 21.1413C62.8818 20.9223 63.308 20.6205 63.6157 20.2358C63.9235 19.8452 64.0803 19.3894 64.0862 18.8686C64.0803 18.3951 63.9412 18.0045 63.669 17.6967C63.3967 17.383 63.015 17.1226 62.5237 16.9155C62.0384 16.7024 61.4702 16.513 60.8192 16.3473L58.7507 15.8146C57.2533 15.4299 56.0696 14.8469 55.1995 14.0657C54.3354 13.2785 53.9034 12.2339 53.9034 10.9318C53.9034 9.86056 54.1934 8.92247 54.7734 8.11754C55.3593 7.31262 56.1554 6.68821 57.1615 6.24432C58.1677 5.79451 59.307 5.5696 60.5795 5.5696C61.8697 5.5696 63.0002 5.79451 63.9708 6.24432C64.9474 6.68821 65.7139 7.3067 66.2702 8.09979C66.8265 8.88695 67.1136 9.79249 67.1313 10.8164H63.962ZM70.3163 24V5.81818H82.1416V8.57919H73.61V13.5153H81.529V16.2763H73.61V21.239H82.2126V24H70.3163ZM95.3829 10.8164C95.3 10.0411 94.9508 9.43738 94.3353 9.00533C93.7257 8.57327 92.9326 8.35724 91.956 8.35724C91.2695 8.35724 90.6806 8.46082 90.1893 8.66797C89.6981 8.87512 89.3223 9.15625 89.0618 9.51136C88.8014 9.86648 88.6683 10.2719 88.6623 10.7276C88.6623 11.1064 88.7482 11.4349 88.9198 11.7131C89.0973 11.9912 89.337 12.228 89.6389 12.4233C89.9407 12.6127 90.2751 12.7725 90.6421 12.9027C91.009 13.0329 91.379 13.1424 91.7518 13.2312L93.4564 13.6573C94.1429 13.8171 94.8028 14.0331 95.4361 14.3054C96.0753 14.5777 96.6465 14.9209 97.1495 15.3352C97.6585 15.7495 98.061 16.2496 98.3569 16.8356C98.6529 17.4215 98.8008 18.1081 98.8008 18.8952C98.8008 19.9606 98.5286 20.8987 97.9841 21.7095C97.4396 22.5144 96.6524 23.1448 95.6226 23.6005C94.5986 24.0503 93.3587 24.2752 91.9027 24.2752C90.4882 24.2752 89.2601 24.0562 88.2184 23.6183C87.1827 23.1803 86.3718 22.5411 85.7859 21.7006C85.2059 20.8602 84.8922 19.8363 84.8449 18.6289H88.0853C88.1326 19.2622 88.3279 19.7889 88.6712 20.2092C89.0145 20.6294 89.4613 20.9431 90.0118 21.1502C90.5681 21.3574 91.1896 21.4609 91.8761 21.4609C92.5923 21.4609 93.2196 21.3544 93.7582 21.1413C94.3027 20.9223 94.7289 20.6205 95.0366 20.2358C95.3444 19.8452 95.5012 19.3894 95.5071 18.8686C95.5012 18.3951 95.3621 18.0045 95.0899 17.6967C94.8176 17.383 94.4359 17.1226 93.9446 16.9155C93.4593 16.7024 92.8911 16.513 92.2401 16.3473L90.1716 15.8146C88.6742 15.4299 87.4905 14.8469 86.6204 14.0657C85.7563 13.2785 85.3243 12.2339 85.3243 10.9318C85.3243 9.86056 85.6143 8.92247 86.1943 8.11754C86.7802 7.31262 87.5763 6.68821 88.5824 6.24432C89.5886 5.79451 90.7279 5.5696 92.0004 5.5696C93.2906 5.5696 94.4211 5.79451 95.3917 6.24432C96.3683 6.68821 97.1348 7.3067 97.6911 8.09979C98.2474 8.88695 98.5345 9.79249 98.5522 10.8164H95.3829ZM117.984 14.9091C117.984 16.8681 117.617 18.546 116.883 19.9428C116.155 21.3337 115.16 22.399 113.9 23.1388C112.645 23.8787 111.222 24.2486 109.63 24.2486C108.037 24.2486 106.611 23.8787 105.35 23.1388C104.096 22.3931 103.101 21.3248 102.367 19.9339C101.64 18.5372 101.276 16.8622 101.276 14.9091C101.276 12.95 101.64 11.2751 102.367 9.88423C103.101 8.48745 104.096 7.41915 105.35 6.67933C106.611 5.93951 108.037 5.5696 109.63 5.5696C111.222 5.5696 112.645 5.93951 113.9 6.67933C115.16 7.41915 116.155 8.48745 116.883 9.88423C117.617 11.2751 117.984 12.95 117.984 14.9091ZM114.672 14.9091C114.672 13.5301 114.456 12.3671 114.024 11.4201C113.598 10.4672 113.006 9.74811 112.249 9.26278C111.491 8.77154 110.618 8.52592 109.63 8.52592C108.641 8.52592 107.768 8.77154 107.011 9.26278C106.253 9.74811 105.658 10.4672 105.226 11.4201C104.8 12.3671 104.587 13.5301 104.587 14.9091C104.587 16.2881 104.8 17.4541 105.226 18.407C105.658 19.3539 106.253 20.073 107.011 20.5643C107.768 21.0496 108.641 21.2923 109.63 21.2923C110.618 21.2923 111.491 21.0496 112.249 20.5643C113.006 20.073 113.598 19.3539 114.024 18.407C114.456 17.4541 114.672 16.2881 114.672 14.9091ZM121.098 24V5.81818H127.916C129.312 5.81818 130.484 6.06084 131.431 6.54616C132.384 7.03149 133.103 7.71212 133.589 8.58807C134.08 9.4581 134.326 10.4731 134.326 11.6332C134.326 12.7991 134.077 13.8112 133.58 14.6694C133.089 15.5217 132.364 16.1816 131.405 16.6491C130.446 17.1108 129.268 17.3416 127.871 17.3416H123.015V14.6072H127.427C128.244 14.6072 128.913 14.4948 129.434 14.2699C129.955 14.0391 130.339 13.7047 130.588 13.2667C130.842 12.8228 130.97 12.2783 130.97 11.6332C130.97 10.988 130.842 10.4376 130.588 9.98189C130.333 9.52024 129.946 9.17105 129.425 8.9343C128.904 8.69164 128.232 8.57031 127.41 8.57031H124.391V24H121.098ZM130.49 15.7614L134.991 24H131.316L126.895 15.7614H130.49ZM140.651 5.81818V24H137.357V5.81818H140.651ZM154.099 10.8164C154.016 10.0411 153.667 9.43738 153.051 9.00533C152.441 8.57327 151.648 8.35724 150.672 8.35724C149.985 8.35724 149.396 8.46082 148.905 8.66797C148.414 8.87512 148.038 9.15625 147.778 9.51136C147.517 9.86648 147.384 10.2719 147.378 10.7276C147.378 11.1064 147.464 11.4349 147.636 11.7131C147.813 11.9912 148.053 12.228 148.355 12.4233C148.657 12.6127 148.991 12.7725 149.358 12.9027C149.725 13.0329 150.095 13.1424 150.468 13.2312L152.172 13.6573C152.859 13.8171 153.519 14.0331 154.152 14.3054C154.791 14.5777 155.362 14.9209 155.865 15.3352C156.374 15.7495 156.777 16.2496 157.073 16.8356C157.369 17.4215 157.517 18.1081 157.517 18.8952C157.517 19.9606 157.244 20.8987 156.7 21.7095C156.155 22.5144 155.368 23.1448 154.338 23.6005C153.314 24.0503 152.075 24.2752 150.619 24.2752C149.204 24.2752 147.976 24.0562 146.934 23.6183C145.899 23.1803 145.088 22.5411 144.502 21.7006C143.922 20.8602 143.608 19.8363 143.561 18.6289H146.801C146.848 19.2622 147.044 19.7889 147.387 20.2092C147.73 20.6294 148.177 20.9431 148.728 21.1502C149.284 21.3574 149.905 21.4609 150.592 21.4609C151.308 21.4609 151.935 21.3544 152.474 21.1413C153.019 20.9223 153.445 20.6205 153.752 20.2358C154.06 19.8452 154.217 19.3894 154.223 18.8686C154.217 18.3951 154.078 18.0045 153.806 17.6967C153.533 17.383 153.152 17.1226 152.66 16.9155C152.175 16.7024 151.607 16.513 150.956 16.3473L148.887 15.8146C147.39 15.4299 146.206 14.8469 145.336 14.0657C144.472 13.2785 144.04 12.2339 144.04 10.9318C144.04 9.86056 144.33 8.92247 144.91 8.11754C145.496 7.31262 146.292 6.68821 147.298 6.24432C148.304 5.79451 149.444 5.5696 150.716 5.5696C152.006 5.5696 153.137 5.79451 154.108 6.24432C155.084 6.68821 155.851 7.3067 156.407 8.09979C156.963 8.88695 157.25 9.79249 157.268 10.8164H154.099ZM166.654 24V5.81818H169.948V13.5153H178.373V5.81818H181.675V24H178.373V16.2763H169.948V24H166.654ZM188.551 5.81818V24H185.258V5.81818H188.551ZM199.291 5.81818H202.558V18.6023C202.552 19.7741 202.304 20.7833 201.813 21.6296C201.321 22.4701 200.635 23.1181 199.753 23.5739C198.877 24.0237 197.856 24.2486 196.69 24.2486C195.625 24.2486 194.666 24.0592 193.814 23.6804C192.967 23.2957 192.296 22.7275 191.798 21.9759C191.301 21.2242 191.053 20.2891 191.053 19.1705H194.329C194.335 19.6617 194.441 20.0849 194.648 20.44C194.861 20.7951 195.154 21.0674 195.527 21.2567C195.9 21.4461 196.329 21.5408 196.814 21.5408C197.341 21.5408 197.788 21.4313 198.155 21.2124C198.522 20.9875 198.8 20.656 198.989 20.218C199.185 19.7801 199.285 19.2415 199.291 18.6023V5.81818ZM208.467 24H204.951L211.352 5.81818H215.418L221.828 24H218.312L213.456 9.54688H213.314L208.467 24ZM208.582 16.8711H218.17V19.5167H208.582V16.8711ZM224.223 24V5.81818H231.183C232.497 5.81818 233.589 6.02533 234.459 6.43963C235.335 6.84801 235.989 7.40732 236.421 8.11754C236.859 8.82777 237.078 9.63269 237.078 10.5323C237.078 11.2721 236.936 11.9054 236.652 12.4322C236.367 12.953 235.986 13.3762 235.506 13.7017C235.027 14.0272 234.491 14.261 233.899 14.4031V14.5806C234.544 14.6161 235.163 14.8144 235.755 15.1754C236.353 15.5305 236.841 16.0336 237.22 16.6847C237.598 17.3357 237.788 18.1229 237.788 19.0462C237.788 19.9872 237.56 20.8336 237.104 21.5852C236.649 22.331 235.962 22.9199 235.045 23.3519C234.127 23.784 232.973 24 231.582 24H224.223ZM227.516 21.2479H231.058C232.254 21.2479 233.115 21.02 233.642 20.5643C234.175 20.1026 234.441 19.5108 234.441 18.7887C234.441 18.2501 234.308 17.7648 234.041 17.3327C233.775 16.8948 233.396 16.5515 232.905 16.3029C232.414 16.0484 231.828 15.9212 231.147 15.9212H227.516V21.2479ZM227.516 13.5508H230.774C231.343 13.5508 231.855 13.4472 232.31 13.2401C232.766 13.027 233.124 12.7281 233.384 12.3434C233.651 11.9528 233.784 11.4911 233.784 10.9585C233.784 10.2541 233.535 9.67412 233.038 9.21839C232.547 8.76266 231.816 8.5348 230.845 8.5348H227.516V13.5508Z" fill="black"/>
<line x1="0.872986" y1="34" x2="239.127" y2="34" stroke="black" stroke-width="3"/>
</svg>
