<svg width="240" height="46" viewBox="0 0 240 46" fill="none" xmlns="http://www.w3.org/2000/svg">
<path d="M22.8548 5.97822H26.8854L32.2831 19.1529H32.4962L37.8939 5.97822H41.9244V24.16H38.7639V11.6689H38.5953L33.5704 24.1068H31.2089L26.184 11.6423H26.0154V24.16H22.8548V5.97822ZM49.2931 24.4352C48.4289 24.4352 47.6507 24.2814 46.9582 23.9736C46.2716 23.6599 45.7271 23.1983 45.3247 22.5887C44.9281 21.979 44.7298 21.2274 44.7298 20.3337C44.7298 19.5643 44.8719 18.928 45.156 18.4249C45.4401 17.9219 45.8277 17.5194 46.319 17.2176C46.8102 16.9157 47.3636 16.6879 47.9791 16.534C48.6006 16.3742 49.2427 16.2588 49.9056 16.1877C50.7046 16.1049 51.3527 16.0309 51.8499 15.9658C52.347 15.8948 52.7081 15.7882 52.933 15.6462C53.1638 15.4982 53.2792 15.2704 53.2792 14.9626V14.9093C53.2792 14.2405 53.0809 13.7227 52.6844 13.3557C52.2878 12.9888 51.7167 12.8053 50.971 12.8053C50.1838 12.8053 49.5594 12.9769 49.0977 13.3202C48.642 13.6635 48.3343 14.0689 48.1744 14.5365L45.1737 14.1103C45.4105 13.2817 45.8011 12.5892 46.3456 12.0329C46.8901 11.4706 47.556 11.0504 48.3431 10.7722C49.1303 10.4882 50.0003 10.3461 50.9532 10.3461C51.6102 10.3461 52.2642 10.4231 52.9152 10.5769C53.5663 10.7308 54.1611 10.9853 54.6997 11.3404C55.2383 11.6896 55.6703 12.1661 55.9958 12.7698C56.3273 13.3735 56.493 14.1281 56.493 15.0336V24.16H53.4035V22.2868H53.297C53.1017 22.6656 52.8264 23.0207 52.4713 23.3522C52.1221 23.6777 51.6812 23.941 51.1485 24.1423C50.6218 24.3376 50.0033 24.4352 49.2931 24.4352ZM50.1276 22.0737C50.7727 22.0737 51.332 21.9465 51.8055 21.692C52.279 21.4316 52.643 21.0883 52.8975 20.6622C53.1579 20.236 53.2881 19.7714 53.2881 19.2683V17.6615C53.1875 17.7443 53.0158 17.8213 52.7732 17.8923C52.5364 17.9633 52.2701 18.0254 51.9742 18.0787C51.6782 18.132 51.3853 18.1793 51.0953 18.2208C50.8052 18.2622 50.5537 18.2977 50.3406 18.3273C49.8612 18.3924 49.4321 18.4989 49.0534 18.6469C48.6746 18.7949 48.3757 19.002 48.1567 19.2683C47.9377 19.5288 47.8282 19.8661 47.8282 20.2804C47.8282 20.8723 48.0442 21.3191 48.4763 21.621C48.9084 21.9228 49.4588 22.0737 50.1276 22.0737ZM61.2338 29.2737C60.7958 29.2737 60.3904 29.2382 60.0175 29.1671C59.6505 29.102 59.3576 29.0251 59.1386 28.9363L59.8843 26.4328C60.3519 26.5689 60.7691 26.634 61.1361 26.6281C61.503 26.6222 61.8256 26.5067 62.1038 26.2818C62.3879 26.0629 62.6276 25.6959 62.8229 25.181L63.0981 24.4441L58.1531 10.5237H61.5622L64.705 20.822H64.847L67.9987 10.5237H71.4166L65.9568 25.8113C65.7023 26.5334 65.3649 27.1519 64.9447 27.6668C64.5245 28.1876 64.0096 28.5842 63.3999 28.8564C62.7963 29.1346 62.0742 29.2737 61.2338 29.2737ZM73.7826 24.16V5.97822H76.9964V12.7786H77.1295C77.2952 12.4472 77.529 12.095 77.8309 11.7222C78.1327 11.3434 78.5411 11.0208 79.056 10.7545C79.5709 10.4822 80.2279 10.3461 81.0269 10.3461C82.0804 10.3461 83.0303 10.6154 83.8767 11.154C84.729 11.6867 85.4037 12.4768 85.9008 13.5244C86.4039 14.566 86.6555 15.8445 86.6555 17.3596C86.6555 18.857 86.4098 20.1295 85.9186 21.1771C85.4273 22.2247 84.7586 23.0237 83.9122 23.5741C83.0658 24.1245 82.107 24.3997 81.0358 24.3997C80.2545 24.3997 79.6064 24.2695 79.0915 24.0091C78.5766 23.7487 78.1623 23.435 77.8486 23.0681C77.5409 22.6952 77.3012 22.343 77.1295 22.0116H76.9431V24.16H73.7826ZM76.9342 17.3419C76.9342 18.2237 77.0585 18.9961 77.3071 19.659C77.5616 20.3218 77.9256 20.8397 78.3991 21.2126C78.8785 21.5795 79.4585 21.763 80.1391 21.763C80.8493 21.763 81.4442 21.5736 81.9236 21.1948C82.403 20.8101 82.764 20.2863 83.0067 19.6235C83.2552 18.9547 83.3795 18.1941 83.3795 17.3419C83.3795 16.4955 83.2582 15.7438 83.0155 15.0869C82.7729 14.4299 82.4118 13.915 81.9324 13.5421C81.453 13.1693 80.8553 12.9828 80.1391 12.9828C79.4526 12.9828 78.8696 13.1633 78.3902 13.5244C77.9108 13.8854 77.5468 14.3914 77.2982 15.0425C77.0555 15.6935 76.9342 16.46 76.9342 17.3419ZM95.4245 24.4264C94.0574 24.4264 92.8766 24.1423 91.8823 23.5741C90.8939 23 90.1333 22.1892 89.6007 21.1416C89.068 20.0881 88.8017 18.8481 88.8017 17.4218C88.8017 16.0191 89.068 14.788 89.6007 13.7286C90.1393 12.6632 90.8909 11.8346 91.8556 11.2428C92.8204 10.645 93.9538 10.3461 95.2559 10.3461C96.0963 10.3461 96.8894 10.4822 97.6351 10.7545C98.3868 11.0208 99.0497 11.4351 99.6238 11.9974C100.204 12.5597 100.66 13.2758 100.991 14.1458C101.322 15.0099 101.488 16.0398 101.488 17.2353V18.2208H90.3109V16.0546H98.4075C98.4016 15.439 98.2684 14.8916 98.008 14.4122C97.7476 13.9268 97.3836 13.5451 96.916 13.2669C96.4544 12.9888 95.9158 12.8497 95.3002 12.8497C94.6433 12.8497 94.0662 13.0095 93.5691 13.3291C93.0719 13.6428 92.6842 14.0571 92.4061 14.572C92.1338 15.081 91.9947 15.6403 91.9888 16.2499V18.1409C91.9888 18.9339 92.1338 19.6146 92.4238 20.1828C92.7138 20.745 93.1193 21.1771 93.6401 21.4789C94.1609 21.7749 94.7705 21.9228 95.4689 21.9228C95.9365 21.9228 96.3597 21.8577 96.7385 21.7275C97.1172 21.5914 97.4457 21.3931 97.7239 21.1327C98.0021 20.8723 98.2122 20.5497 98.3542 20.165L101.355 20.5024C101.166 21.2955 100.805 21.9879 100.272 22.5798C99.7451 23.1657 99.0704 23.6214 98.2477 23.947C97.425 24.2666 96.484 24.4264 95.4245 24.4264ZM112.406 29.2737C111.968 29.2737 111.562 29.2382 111.189 29.1671C110.822 29.102 110.529 29.0251 110.31 28.9363L111.056 26.4328C111.524 26.5689 111.941 26.634 112.308 26.6281C112.675 26.6222 112.997 26.5067 113.276 26.2818C113.56 26.0629 113.799 25.6959 113.995 25.181L114.27 24.4441L109.325 10.5237H112.734L115.877 20.822H116.019L119.171 10.5237H122.589L117.129 25.8113C116.874 26.5334 116.537 27.1519 116.117 27.6668C115.696 28.1876 115.181 28.5842 114.572 28.8564C113.968 29.1346 113.246 29.2737 112.406 29.2737ZM130.297 24.4264C128.965 24.4264 127.811 24.1334 126.834 23.5475C125.858 22.9615 125.1 22.1418 124.562 21.0883C124.029 20.0348 123.763 18.8037 123.763 17.3951C123.763 15.9865 124.029 14.7525 124.562 13.6931C125.1 12.6336 125.858 11.811 126.834 11.225C127.811 10.6391 128.965 10.3461 130.297 10.3461C131.628 10.3461 132.782 10.6391 133.759 11.225C134.736 11.811 135.49 12.6336 136.023 13.6931C136.561 14.7525 136.831 15.9865 136.831 17.3951C136.831 18.8037 136.561 20.0348 136.023 21.0883C135.49 22.1418 134.736 22.9615 133.759 23.5475C132.782 24.1334 131.628 24.4264 130.297 24.4264ZM130.314 21.8518C131.037 21.8518 131.64 21.6535 132.126 21.257C132.611 20.8545 132.972 20.3159 133.209 19.6412C133.451 18.9665 133.573 18.2148 133.573 17.3862C133.573 16.5517 133.451 15.7971 133.209 15.1224C132.972 14.4418 132.611 13.9002 132.126 13.4977C131.64 13.0953 131.037 12.8941 130.314 12.8941C129.575 12.8941 128.959 13.0953 128.468 13.4977C127.983 13.9002 127.619 14.4418 127.376 15.1224C127.139 15.7971 127.021 16.5517 127.021 17.3862C127.021 18.2148 127.139 18.9665 127.376 19.6412C127.619 20.3159 127.983 20.8545 128.468 21.257C128.959 21.6535 129.575 21.8518 130.314 21.8518ZM148.25 18.4249V10.5237H151.464V24.16H148.348V21.7364H148.206C147.898 22.4999 147.392 23.1243 146.687 23.6096C145.989 24.0949 145.128 24.3376 144.104 24.3376C143.21 24.3376 142.42 24.1393 141.734 23.7428C141.053 23.3403 140.52 22.7573 140.136 21.9938C139.751 21.2244 139.559 20.2952 139.559 19.2062V10.5237H142.772V18.709C142.772 19.5731 143.009 20.2597 143.483 20.7687C143.956 21.2777 144.577 21.5322 145.347 21.5322C145.82 21.5322 146.279 21.4168 146.723 21.186C147.167 20.9551 147.531 20.6119 147.815 20.1561C148.105 19.6945 148.25 19.1174 148.25 18.4249ZM164.183 16.17V24.16H160.97V10.5237H164.041V12.8408H164.201C164.515 12.0773 165.015 11.4706 165.702 11.0208C166.394 10.571 167.249 10.3461 168.267 10.3461C169.208 10.3461 170.028 10.5473 170.726 10.9498C171.431 11.3523 171.975 11.9352 172.36 12.6987C172.751 13.4622 172.943 14.3885 172.937 15.4775V24.16H169.723V15.9747C169.723 15.0632 169.486 14.35 169.013 13.8351C168.545 13.3202 167.897 13.0627 167.069 13.0627C166.506 13.0627 166.006 13.187 165.568 13.4356C165.136 13.6783 164.796 14.0304 164.547 14.4921C164.305 14.9537 164.183 15.513 164.183 16.17ZM182.241 24.4264C180.874 24.4264 179.693 24.1423 178.699 23.5741C177.71 23 176.95 22.1892 176.417 21.1416C175.884 20.0881 175.618 18.8481 175.618 17.4218C175.618 16.0191 175.884 14.788 176.417 13.7286C176.956 12.6632 177.707 11.8346 178.672 11.2428C179.637 10.645 180.77 10.3461 182.072 10.3461C182.913 10.3461 183.706 10.4822 184.452 10.7545C185.203 11.0208 185.866 11.4351 186.44 11.9974C187.02 12.5597 187.476 13.2758 187.807 14.1458C188.139 15.0099 188.305 16.0398 188.305 17.2353V18.2208H177.127V16.0546H185.224C185.218 15.439 185.085 14.8916 184.824 14.4122C184.564 13.9268 184.2 13.5451 183.732 13.2669C183.271 12.9888 182.732 12.8497 182.117 12.8497C181.46 12.8497 180.883 13.0095 180.385 13.3291C179.888 13.6428 179.501 14.0571 179.222 14.572C178.95 15.081 178.811 15.6403 178.805 16.2499V18.1409C178.805 18.9339 178.95 19.6146 179.24 20.1828C179.53 20.745 179.936 21.1771 180.456 21.4789C180.977 21.7749 181.587 21.9228 182.285 21.9228C182.753 21.9228 183.176 21.8577 183.555 21.7275C183.934 21.5914 184.262 21.3931 184.54 21.1327C184.818 20.8723 185.029 20.5497 185.171 20.165L188.171 20.5024C187.982 21.2955 187.621 21.9879 187.088 22.5798C186.561 23.1657 185.887 23.6214 185.064 23.947C184.241 24.2666 183.3 24.4264 182.241 24.4264ZM197.06 24.4264C195.693 24.4264 194.512 24.1423 193.518 23.5741C192.53 23 191.769 22.1892 191.236 21.1416C190.704 20.0881 190.437 18.8481 190.437 17.4218C190.437 16.0191 190.704 14.788 191.236 13.7286C191.775 12.6632 192.527 11.8346 193.491 11.2428C194.456 10.645 195.59 10.3461 196.892 10.3461C197.732 10.3461 198.525 10.4822 199.271 10.7545C200.023 11.0208 200.685 11.4351 201.259 11.9974C201.84 12.5597 202.295 13.2758 202.627 14.1458C202.958 15.0099 203.124 16.0398 203.124 17.2353V18.2208H191.947V16.0546H200.043C200.037 15.439 199.904 14.8916 199.644 14.4122C199.383 13.9268 199.019 13.5451 198.552 13.2669C198.09 12.9888 197.552 12.8497 196.936 12.8497C196.279 12.8497 195.702 13.0095 195.205 13.3291C194.708 13.6428 194.32 14.0571 194.042 14.572C193.77 15.081 193.63 15.6403 193.625 16.2499V18.1409C193.625 18.9339 193.77 19.6146 194.06 20.1828C194.35 20.745 194.755 21.1771 195.276 21.4789C195.797 21.7749 196.406 21.9228 197.105 21.9228C197.572 21.9228 197.995 21.8577 198.374 21.7275C198.753 21.5914 199.081 21.3931 199.36 21.1327C199.638 20.8723 199.848 20.5497 199.99 20.165L202.991 20.5024C202.801 21.2955 202.44 21.9879 201.908 22.5798C201.381 23.1657 200.706 23.6214 199.883 23.947C199.061 24.2666 198.12 24.4264 197.06 24.4264ZM210.903 24.3997C209.832 24.3997 208.873 24.1245 208.027 23.5741C207.18 23.0237 206.511 22.2247 206.02 21.1771C205.529 20.1295 205.283 18.857 205.283 17.3596C205.283 15.8445 205.532 14.566 206.029 13.5244C206.532 12.4768 207.21 11.6867 208.062 11.154C208.914 10.6154 209.864 10.3461 210.912 10.3461C211.711 10.3461 212.368 10.4822 212.883 10.7545C213.398 11.0208 213.806 11.3434 214.108 11.7222C214.41 12.095 214.644 12.4472 214.809 12.7786H214.942V5.97822H218.165V24.16H215.005V22.0116H214.809C214.644 22.343 214.404 22.6952 214.09 23.0681C213.777 23.435 213.362 23.7487 212.847 24.0091C212.332 24.2695 211.684 24.3997 210.903 24.3997ZM211.8 21.763C212.48 21.763 213.06 21.5795 213.54 21.2126C214.019 20.8397 214.383 20.3218 214.632 19.659C214.88 18.9961 215.005 18.2237 215.005 17.3419C215.005 16.46 214.88 15.6935 214.632 15.0425C214.389 14.3914 214.028 13.8854 213.549 13.5244C213.075 13.1633 212.492 12.9828 211.8 12.9828C211.084 12.9828 210.486 13.1693 210.006 13.5421C209.527 13.915 209.166 14.4299 208.923 15.0869C208.681 15.7438 208.559 16.4955 208.559 17.3419C208.559 18.1941 208.681 18.9547 208.923 19.6235C209.172 20.2863 209.536 20.8101 210.015 21.1948C210.501 21.5736 211.095 21.763 211.8 21.763Z" fill="black"/>
<path d="M0.873047 44H239.127" stroke="black" stroke-width="3"/>
</svg>
