<svg width="249" height="40" viewBox="0 0 249 40" fill="none" xmlns="http://www.w3.org/2000/svg">
<path d="M2.03795 24V5.81818H8.85614C10.2529 5.81818 11.4248 6.0786 12.3718 6.59943C13.3246 7.12026 14.0438 7.83641 14.5291 8.74787C15.0203 9.65341 15.2659 10.6832 15.2659 11.8374C15.2659 13.0033 15.0203 14.0391 14.5291 14.9446C14.0378 15.8501 13.3128 16.5633 12.354 17.0842C11.3952 17.5991 10.2144 17.8565 8.81175 17.8565H4.29292V15.1488H8.36785C9.18461 15.1488 9.85341 15.0067 10.3742 14.7227C10.8951 14.4386 11.2798 14.0479 11.5284 13.5508C11.7829 13.0536 11.9101 12.4825 11.9101 11.8374C11.9101 11.1922 11.7829 10.6241 11.5284 10.1328C11.2798 9.64157 10.8921 9.25982 10.3654 8.98757C9.84453 8.7094 9.17278 8.57031 8.3501 8.57031H5.33163V24H2.03795ZM34.3733 14.9091C34.3733 16.8681 34.0063 18.546 33.2724 19.9428C32.5444 21.3337 31.5501 22.399 30.2895 23.1388C29.0347 23.8787 27.6113 24.2486 26.0192 24.2486C24.4271 24.2486 23.0008 23.8787 21.7401 23.1388C20.4854 22.3931 19.491 21.3248 18.7571 19.9339C18.0292 18.5372 17.6652 16.8622 17.6652 14.9091C17.6652 12.95 18.0292 11.2751 18.7571 9.88423C19.491 8.48745 20.4854 7.41915 21.7401 6.67933C23.0008 5.93951 24.4271 5.5696 26.0192 5.5696C27.6113 5.5696 29.0347 5.93951 30.2895 6.67933C31.5501 7.41915 32.5444 8.48745 33.2724 9.88423C34.0063 11.2751 34.3733 12.95 34.3733 14.9091ZM31.0618 14.9091C31.0618 13.5301 30.8458 12.3671 30.4138 11.4201C29.9876 10.4672 29.3958 9.74811 28.6382 9.26278C27.8806 8.77154 27.0076 8.52592 26.0192 8.52592C25.0308 8.52592 24.1578 8.77154 23.4003 9.26278C22.6427 9.74811 22.0479 10.4672 21.6158 11.4201C21.1897 12.3671 20.9766 13.5301 20.9766 14.9091C20.9766 16.2881 21.1897 17.4541 21.6158 18.407C22.0479 19.3539 22.6427 20.073 23.4003 20.5643C24.1578 21.0496 25.0308 21.2923 26.0192 21.2923C27.0076 21.2923 27.8806 21.0496 28.6382 20.5643C29.3958 20.073 29.9876 19.3539 30.4138 18.407C30.8458 17.4541 31.0618 16.2881 31.0618 14.9091ZM37.4872 24V5.81818H44.3054C45.7021 5.81818 46.874 6.0786 47.821 6.59943C48.7739 7.12026 49.493 7.83641 49.9783 8.74787C50.4695 9.65341 50.7152 10.6832 50.7152 11.8374C50.7152 13.0033 50.4695 14.0391 49.9783 14.9446C49.4871 15.8501 48.762 16.5633 47.8032 17.0842C46.8444 17.5991 45.6637 17.8565 44.261 17.8565H39.7421V15.1488H43.8171C44.6338 15.1488 45.3026 15.0067 45.8235 14.7227C46.3443 14.4386 46.729 14.0479 46.9776 13.5508C47.2321 13.0536 47.3593 12.4825 47.3593 11.8374C47.3593 11.1922 47.2321 10.6241 46.9776 10.1328C46.729 9.64157 46.3413 9.25982 45.8146 8.98757C45.2938 8.7094 44.622 8.57031 43.7993 8.57031H40.7809V24H37.4872ZM65.0373 5.81818H68.331V17.6967C68.331 18.9988 68.0232 20.1441 67.4077 21.1325C66.7981 22.1209 65.9399 22.8932 64.8331 23.4496C63.7264 24 62.4332 24.2752 60.9535 24.2752C59.468 24.2752 58.1718 24 57.065 23.4496C55.9583 22.8932 55.1001 22.1209 54.4905 21.1325C53.8808 20.1441 53.576 18.9988 53.576 17.6967V5.81818H56.8697V17.4215C56.8697 18.1791 57.0354 18.8538 57.3669 19.4457C57.7042 20.0375 58.1777 20.5021 58.7873 20.8395C59.3969 21.1709 60.119 21.3366 60.9535 21.3366C61.788 21.3366 62.5101 21.1709 63.1197 20.8395C63.7352 20.5021 64.2087 20.0375 64.5402 19.4457C64.8716 18.8538 65.0373 18.1791 65.0373 17.4215V5.81818ZM71.911 24V5.81818H75.2047V21.239H83.2125V24H71.911ZM89.0896 24H85.574L91.9749 5.81818H96.041L102.451 24H98.9351L94.079 9.54688H93.9369L89.0896 24ZM89.205 16.8711H98.7931V19.5167H89.205V16.8711ZM104.846 24V5.81818H111.664C113.061 5.81818 114.232 6.06084 115.179 6.54616C116.132 7.03149 116.851 7.71212 117.337 8.58807C117.828 9.4581 118.074 10.4731 118.074 11.6332C118.074 12.7991 117.825 13.8112 117.328 14.6694C116.837 15.5217 116.112 16.1816 115.153 16.6491C114.194 17.1108 113.016 17.3416 111.619 17.3416H106.763V14.6072H111.175C111.992 14.6072 112.661 14.4948 113.182 14.2699C113.703 14.0391 114.087 13.7047 114.336 13.2667C114.59 12.8228 114.718 12.2783 114.718 11.6332C114.718 10.988 114.59 10.4376 114.336 9.98189C114.081 9.52024 113.694 9.17105 113.173 8.9343C112.652 8.69164 111.98 8.57031 111.158 8.57031H108.139V24H104.846ZM114.238 15.7614L118.739 24H115.064L110.643 15.7614H114.238ZM127.307 24V5.81818H134.125C135.521 5.81818 136.693 6.0786 137.64 6.59943C138.593 7.12026 139.312 7.83641 139.798 8.74787C140.289 9.65341 140.534 10.6832 140.534 11.8374C140.534 13.0033 140.289 14.0391 139.798 14.9446C139.306 15.8501 138.581 16.5633 137.623 17.0842C136.664 17.5991 135.483 17.8565 134.08 17.8565H129.561V15.1488H133.636C134.453 15.1488 135.122 15.0067 135.643 14.7227C136.164 14.4386 136.548 14.0479 136.797 13.5508C137.051 13.0536 137.179 12.4825 137.179 11.8374C137.179 11.1922 137.051 10.6241 136.797 10.1328C136.548 9.64157 136.161 9.25982 135.634 8.98757C135.113 8.7094 134.441 8.57031 133.619 8.57031H130.6V24H127.307ZM143.395 24V5.81818H150.214C151.61 5.81818 152.782 6.06084 153.729 6.54616C154.682 7.03149 155.401 7.71212 155.886 8.58807C156.378 9.4581 156.623 10.4731 156.623 11.6332C156.623 12.7991 156.375 13.8112 155.878 14.6694C155.386 15.5217 154.661 16.1816 153.703 16.6491C152.744 17.1108 151.566 17.3416 150.169 17.3416H145.313V14.6072H149.725C150.542 14.6072 151.211 14.4948 151.732 14.2699C152.253 14.0391 152.637 13.7047 152.886 13.2667C153.14 12.8228 153.268 12.2783 153.268 11.6332C153.268 10.988 153.14 10.4376 152.886 9.98189C152.631 9.52024 152.244 9.17105 151.723 8.9343C151.202 8.69164 150.53 8.57031 149.708 8.57031H146.689V24H143.395ZM152.788 15.7614L157.289 24H153.614L149.193 15.7614H152.788ZM175.902 14.9091C175.902 16.8681 175.535 18.546 174.801 19.9428C174.073 21.3337 173.078 22.399 171.818 23.1388C170.563 23.8787 169.14 24.2486 167.548 24.2486C165.955 24.2486 164.529 23.8787 163.268 23.1388C162.014 22.3931 161.019 21.3248 160.285 19.9339C159.557 18.5372 159.193 16.8622 159.193 14.9091C159.193 12.95 159.557 11.2751 160.285 9.88423C161.019 8.48745 162.014 7.41915 163.268 6.67933C164.529 5.93951 165.955 5.5696 167.548 5.5696C169.14 5.5696 170.563 5.93951 171.818 6.67933C173.078 7.41915 174.073 8.48745 174.801 9.88423C175.535 11.2751 175.902 12.95 175.902 14.9091ZM172.59 14.9091C172.59 13.5301 172.374 12.3671 171.942 11.4201C171.516 10.4672 170.924 9.74811 170.167 9.26278C169.409 8.77154 168.536 8.52592 167.548 8.52592C166.559 8.52592 165.686 8.77154 164.929 9.26278C164.171 9.74811 163.576 10.4672 163.144 11.4201C162.718 12.3671 162.505 13.5301 162.505 14.9091C162.505 16.2881 162.718 17.4541 163.144 18.407C163.576 19.3539 164.171 20.073 164.929 20.5643C165.686 21.0496 166.559 21.2923 167.548 21.2923C168.536 21.2923 169.409 21.0496 170.167 20.5643C170.924 20.073 171.516 19.3539 171.942 18.407C172.374 17.4541 172.59 16.2881 172.59 14.9091ZM185.177 24H179.015V5.81818H185.301C187.106 5.81818 188.657 6.18217 189.953 6.91016C191.255 7.63222 192.255 8.67093 192.954 10.0263C193.652 11.3816 194.001 13.0033 194.001 14.8913C194.001 16.7853 193.649 18.4129 192.945 19.7741C192.246 21.1354 191.237 22.18 189.917 22.908C188.604 23.636 187.023 24 185.177 24ZM182.309 21.1502H185.017C186.283 21.1502 187.34 20.9194 188.186 20.4577C189.033 19.9902 189.669 19.2947 190.095 18.3714C190.521 17.4422 190.734 16.2822 190.734 14.8913C190.734 13.5005 190.521 12.3464 190.095 11.429C189.669 10.5057 189.039 9.81617 188.204 9.36044C187.375 8.89879 186.346 8.66797 185.115 8.66797H182.309V21.1502ZM208.592 5.81818H211.886V17.6967C211.886 18.9988 211.578 20.1441 210.962 21.1325C210.353 22.1209 209.495 22.8932 208.388 23.4496C207.281 24 205.988 24.2752 204.508 24.2752C203.023 24.2752 201.726 24 200.62 23.4496C199.513 22.8932 198.655 22.1209 198.045 21.1325C197.436 20.1441 197.131 18.9988 197.131 17.6967V5.81818H200.424V17.4215C200.424 18.1791 200.59 18.8538 200.922 19.4457C201.259 20.0375 201.732 20.5021 202.342 20.8395C202.952 21.1709 203.674 21.3366 204.508 21.3366C205.343 21.3366 206.065 21.1709 206.674 20.8395C207.29 20.5021 207.763 20.0375 208.095 19.4457C208.426 18.8538 208.592 18.1791 208.592 17.4215V5.81818ZM231.029 11.9528H227.708C227.614 11.4083 227.439 10.9259 227.184 10.5057C226.93 10.0795 226.613 9.71851 226.235 9.42258C225.856 9.12666 225.424 8.90471 224.938 8.75675C224.459 8.60286 223.941 8.52592 223.385 8.52592C222.396 8.52592 221.52 8.7745 220.757 9.27166C219.993 9.7629 219.396 10.485 218.964 11.4379C218.532 12.3848 218.315 13.5419 218.315 14.9091C218.315 16.3 218.532 17.4718 218.964 18.4247C219.402 19.3717 219.999 20.0878 220.757 20.5732C221.52 21.0526 222.393 21.2923 223.376 21.2923C223.92 21.2923 224.429 21.2212 224.903 21.0792C225.382 20.9312 225.811 20.7152 226.19 20.4311C226.575 20.147 226.897 19.7978 227.158 19.3835C227.424 18.9692 227.608 18.4957 227.708 17.9631L231.029 17.9808C230.904 18.8449 230.635 19.6558 230.221 20.4134C229.812 21.1709 229.277 21.8397 228.614 22.4197C227.951 22.9938 227.176 23.4437 226.288 23.7692C225.4 24.0888 224.415 24.2486 223.331 24.2486C221.733 24.2486 220.307 23.8787 219.052 23.1388C217.798 22.399 216.809 21.3307 216.087 19.9339C215.365 18.5372 215.004 16.8622 215.004 14.9091C215.004 12.95 215.368 11.2751 216.096 9.88423C216.824 8.48745 217.815 7.41915 219.07 6.67933C220.325 5.93951 221.745 5.5696 223.331 5.5696C224.344 5.5696 225.285 5.71165 226.155 5.99574C227.025 6.27983 227.8 6.69709 228.481 7.24751C229.161 7.79202 229.721 8.46082 230.159 9.25391C230.602 10.0411 230.892 10.9407 231.029 11.9528ZM233.246 8.57919V5.81818H247.752V8.57919H242.133V24H238.865V8.57919H233.246Z" fill="black"/>
<line x1="4" y1="38.5" x2="245" y2="38.5" stroke="black" stroke-width="3"/>
</svg>
