<svg width="136" height="41" viewBox="0 0 136 41" fill="none" xmlns="http://www.w3.org/2000/svg">
<path d="M7.17223 24V5.81818H13.9904C15.3872 5.81818 16.5591 6.0786 17.506 6.59943C18.4589 7.12026 19.178 7.83641 19.6634 8.74787C20.1546 9.65341 20.4002 10.6832 20.4002 11.8374C20.4002 13.0033 20.1546 14.0391 19.6634 14.9446C19.1721 15.8501 18.4471 16.5633 17.4883 17.0842C16.5295 17.5991 15.3487 17.8565 13.946 17.8565H9.4272V15.1488H13.5021C14.3189 15.1488 14.9877 15.0067 15.5085 14.7227C16.0294 14.4386 16.4141 14.0479 16.6626 13.5508C16.9171 13.0536 17.0444 12.4825 17.0444 11.8374C17.0444 11.1922 16.9171 10.6241 16.6626 10.1328C16.4141 9.64157 16.0264 9.25982 15.4996 8.98757C14.9788 8.7094 14.3071 8.57031 13.4844 8.57031H10.4659V24H7.17223ZM23.2611 24V5.81818H30.0793C31.4761 5.81818 32.6479 6.06084 33.5949 6.54616C34.5478 7.03149 35.2669 7.71212 35.7522 8.58807C36.2435 9.4581 36.4891 10.4731 36.4891 11.6332C36.4891 12.7991 36.2405 13.8112 35.7433 14.6694C35.2521 15.5217 34.5271 16.1816 33.5683 16.6491C32.6095 17.1108 31.4317 17.3416 30.0349 17.3416H25.1787V14.6072H29.591C30.4078 14.6072 31.0766 14.4948 31.5974 14.2699C32.1182 14.0391 32.5029 13.7047 32.7515 13.2667C33.006 12.8228 33.1333 12.2783 33.1333 11.6332C33.1333 10.988 33.006 10.4376 32.7515 9.98189C32.497 9.52024 32.1093 9.17105 31.5885 8.9343C31.0677 8.69164 30.3959 8.57031 29.5732 8.57031H26.5548V24H23.2611ZM32.6539 15.7614L37.1549 24H33.4795L29.0583 15.7614H32.6539ZM55.7673 14.9091C55.7673 16.8681 55.4004 18.546 54.6665 19.9428C53.9385 21.3337 52.9442 22.399 51.6835 23.1388C50.4288 23.8787 49.0054 24.2486 47.4133 24.2486C45.8212 24.2486 44.3948 23.8787 43.1341 23.1388C41.8794 22.3931 40.8851 21.3248 40.1512 19.9339C39.4232 18.5372 39.0592 16.8622 39.0592 14.9091C39.0592 12.95 39.4232 11.2751 40.1512 9.88423C40.8851 8.48745 41.8794 7.41915 43.1341 6.67933C44.3948 5.93951 45.8212 5.5696 47.4133 5.5696C49.0054 5.5696 50.4288 5.93951 51.6835 6.67933C52.9442 7.41915 53.9385 8.48745 54.6665 9.88423C55.4004 11.2751 55.7673 12.95 55.7673 14.9091ZM52.4559 14.9091C52.4559 13.5301 52.2399 12.3671 51.8078 11.4201C51.3817 10.4672 50.7898 9.74811 50.0322 9.26278C49.2747 8.77154 48.4017 8.52592 47.4133 8.52592C46.4249 8.52592 45.5519 8.77154 44.7943 9.26278C44.0367 9.74811 43.4419 10.4672 43.0099 11.4201C42.5837 12.3671 42.3706 13.5301 42.3706 14.9091C42.3706 16.2881 42.5837 17.4541 43.0099 18.407C43.4419 19.3539 44.0367 20.073 44.7943 20.5643C45.5519 21.0496 46.4249 21.2923 47.4133 21.2923C48.4017 21.2923 49.2747 21.0496 50.0322 20.5643C50.7898 20.073 51.3817 19.3539 51.8078 18.407C52.2399 17.4541 52.4559 16.2881 52.4559 14.9091ZM65.0424 24H58.8812V5.81818H65.1667C66.9719 5.81818 68.5226 6.18217 69.8187 6.91016C71.1208 7.63222 72.121 8.67093 72.8194 10.0263C73.5178 11.3816 73.867 13.0033 73.867 14.8913C73.867 16.7853 73.5149 18.4129 72.8105 19.7741C72.1122 21.1354 71.103 22.18 69.7832 22.908C68.4693 23.636 66.889 24 65.0424 24ZM62.1749 21.1502H64.8826C66.1492 21.1502 67.2057 20.9194 68.052 20.4577C68.8984 19.9902 69.5346 19.2947 69.9608 18.3714C70.3869 17.4422 70.6 16.2822 70.6 14.8913C70.6 13.5005 70.3869 12.3464 69.9608 11.429C69.5346 10.5057 68.9043 9.81617 68.0698 9.36044C67.2412 8.89879 66.2114 8.66797 64.9803 8.66797H62.1749V21.1502ZM88.4577 5.81818H91.7514V17.6967C91.7514 18.9988 91.4437 20.1441 90.8281 21.1325C90.2185 22.1209 89.3603 22.8932 88.2536 23.4496C87.1468 24 85.8536 24.2752 84.3739 24.2752C82.8884 24.2752 81.5922 24 80.4854 23.4496C79.3787 22.8932 78.5205 22.1209 77.9109 21.1325C77.3013 20.1441 76.9964 18.9988 76.9964 17.6967V5.81818H80.2901V17.4215C80.2901 18.1791 80.4558 18.8538 80.7873 19.4457C81.1246 20.0375 81.5981 20.5021 82.2077 20.8395C82.8174 21.1709 83.5394 21.3366 84.3739 21.3366C85.2085 21.3366 85.9305 21.1709 86.5401 20.8395C87.1557 20.5021 87.6291 20.0375 87.9606 19.4457C88.292 18.8538 88.4577 18.1791 88.4577 17.4215V5.81818ZM110.894 11.9528H107.574C107.479 11.4083 107.305 10.9259 107.05 10.5057C106.796 10.0795 106.479 9.71851 106.1 9.42258C105.721 9.12666 105.289 8.90471 104.804 8.75675C104.325 8.60286 103.807 8.52592 103.25 8.52592C102.262 8.52592 101.386 8.7745 100.623 9.27166C99.8591 9.7629 99.2613 10.485 98.8293 11.4379C98.3972 12.3848 98.1812 13.5419 98.1812 14.9091C98.1812 16.3 98.3972 17.4718 98.8293 18.4247C99.2673 19.3717 99.865 20.0878 100.623 20.5732C101.386 21.0526 102.259 21.2923 103.242 21.2923C103.786 21.2923 104.295 21.2212 104.769 21.0792C105.248 20.9312 105.677 20.7152 106.056 20.4311C106.441 20.147 106.763 19.7978 107.024 19.3835C107.29 18.9692 107.473 18.4957 107.574 17.9631L110.894 17.9808C110.77 18.8449 110.501 19.6558 110.086 20.4134C109.678 21.1709 109.142 21.8397 108.479 22.4197C107.817 22.9938 107.041 23.4437 106.153 23.7692C105.266 24.0888 104.28 24.2486 103.197 24.2486C101.599 24.2486 100.173 23.8787 98.9181 23.1388C97.6633 22.399 96.6749 21.3307 95.9529 19.9339C95.2308 18.5372 94.8698 16.8622 94.8698 14.9091C94.8698 12.95 95.2338 11.2751 95.9617 9.88423C96.6897 8.48745 97.6811 7.41915 98.9358 6.67933C100.191 5.93951 101.611 5.5696 103.197 5.5696C104.209 5.5696 105.15 5.71165 106.02 5.99574C106.89 6.27983 107.666 6.69709 108.346 7.24751C109.027 7.79202 109.586 8.46082 110.024 9.25391C110.468 10.0411 110.758 10.9407 110.894 11.9528ZM113.112 8.57919V5.81818H127.618V8.57919H121.998V24H118.731V8.57919H113.112Z" fill="black"/>
<line y1="39.5" x2="136" y2="39.5" stroke="black" stroke-width="3"/>
</svg>
