<svg width="148" height="52" viewBox="0 0 148 52" fill="none" xmlns="http://www.w3.org/2000/svg">
<path d="M23.7573 7.17969C23.6578 6.24929 23.2388 5.52486 22.5002 5.00639C21.7686 4.48793 20.8169 4.22869 19.6451 4.22869C18.8212 4.22869 18.1145 4.35298 17.525 4.60156C16.9355 4.85014 16.4846 5.1875 16.1721 5.61364C15.8596 6.03977 15.6998 6.52628 15.6926 7.07315C15.6926 7.5277 15.7956 7.92187 16.0016 8.25568C16.2147 8.58949 16.5023 8.87358 16.8645 9.10795C17.2267 9.33523 17.628 9.52699 18.0684 9.68324C18.5087 9.83949 18.9526 9.97088 19.4 10.0774L21.4455 10.5888C22.2694 10.7805 23.0613 11.0398 23.8212 11.3665C24.5882 11.6932 25.2736 12.1051 25.8773 12.6023C26.4881 13.0994 26.9711 13.6996 27.3262 14.4027C27.6813 15.1058 27.8588 15.9297 27.8588 16.8743C27.8588 18.1527 27.5321 19.2784 26.8787 20.2514C26.2253 21.2173 25.2807 21.9737 24.0449 22.5206C22.8162 23.0604 21.3283 23.3303 19.5811 23.3303C17.8837 23.3303 16.41 23.0675 15.16 22.5419C13.9171 22.0163 12.9441 21.2493 12.2409 20.2408C11.5449 19.2322 11.1685 18.0036 11.1117 16.5547H15.0002C15.057 17.3146 15.2914 17.9467 15.7033 18.451C16.1152 18.9553 16.6515 19.3317 17.312 19.5803C17.9796 19.8288 18.7253 19.9531 19.5492 19.9531C20.4086 19.9531 21.1614 19.8253 21.8077 19.5696C22.4611 19.3068 22.9725 18.9446 23.3418 18.483C23.7111 18.0142 23.8993 17.4673 23.9064 16.8423C23.8993 16.2741 23.7324 15.8054 23.4057 15.4361C23.079 15.0597 22.6209 14.7472 22.0314 14.4986C21.449 14.2429 20.7672 14.0156 19.986 13.8168L17.5037 13.1776C15.7069 12.7159 14.2864 12.0163 13.2424 11.0788C12.2054 10.1342 11.687 8.88068 11.687 7.31818C11.687 6.03267 12.035 4.90696 12.731 3.94105C13.4341 2.97514 14.3894 2.22585 15.5968 1.69318C16.8042 1.15341 18.1713 0.883522 19.6983 0.883522C21.2466 0.883522 22.6032 1.15341 23.7679 1.69318C24.9398 2.22585 25.8596 2.96804 26.5272 3.91974C27.1948 4.86435 27.5392 5.95099 27.5605 7.17969H23.7573ZM31.3825 23V1.18182H45.5728V4.49503H35.3349V10.4183H44.8377V13.7315H35.3349V19.6868H45.658V23H31.3825ZM49.6051 23V1.18182H53.5575V10.4183H63.6676V1.18182H67.6307V23H63.6676V13.7315H53.5575V23H49.6051ZM75.8817 1.18182V23H71.9293V1.18182H75.8817ZM88.7697 1.18182H92.6902V16.5227C92.6831 17.929 92.3848 19.1399 91.7953 20.1555C91.2058 21.1641 90.3819 21.9418 89.3237 22.4886C88.2725 23.0284 87.0474 23.2983 85.6483 23.2983C84.3699 23.2983 83.2193 23.071 82.1966 22.6165C81.1809 22.1548 80.3748 21.473 79.7782 20.571C79.1816 19.669 78.8833 18.5469 78.8833 17.2045H82.8145C82.8216 17.794 82.9494 18.3018 83.198 18.728C83.4537 19.1541 83.8052 19.4808 84.2527 19.7081C84.7001 19.9354 85.215 20.049 85.7974 20.049C86.4295 20.049 86.9657 19.9176 87.4061 19.6548C87.8464 19.3849 88.1802 18.9872 88.4075 18.4616C88.6419 17.9361 88.7626 17.2898 88.7697 16.5227V1.18182ZM99.78 23H95.5613L103.242 1.18182H108.122L115.813 23H111.595L105.767 5.65625H105.597L99.78 23ZM99.9185 14.4453H111.424V17.62H99.9185V14.4453ZM118.687 23V1.18182H127.039C128.616 1.18182 129.926 1.4304 130.971 1.92756C132.022 2.41761 132.806 3.08878 133.325 3.94105C133.85 4.79332 134.113 5.75923 134.113 6.83878C134.113 7.72656 133.943 8.48651 133.602 9.11861C133.261 9.74361 132.803 10.2514 132.228 10.642C131.652 11.0327 131.01 11.3132 130.299 11.4837V11.6967C131.074 11.7393 131.816 11.9773 132.526 12.4105C133.243 12.8366 133.829 13.4403 134.284 14.2216C134.738 15.0028 134.966 15.9474 134.966 17.0554C134.966 18.1847 134.692 19.2003 134.145 20.1023C133.598 20.9972 132.775 21.7038 131.674 22.2223C130.573 22.7408 129.188 23 127.519 23H118.687ZM122.64 19.6974H126.89C128.325 19.6974 129.358 19.424 129.99 18.8771C130.63 18.3232 130.949 17.6129 130.949 16.7464C130.949 16.1001 130.789 15.5178 130.47 14.9993C130.15 14.4737 129.696 14.0618 129.106 13.7635C128.517 13.4581 127.814 13.3054 126.997 13.3054H122.64V19.6974ZM122.64 10.4609H126.549C127.231 10.4609 127.846 10.3366 128.392 10.0881C128.939 9.83239 129.369 9.47372 129.681 9.01207C130.001 8.54332 130.161 7.98935 130.161 7.35014C130.161 6.50497 129.863 5.80895 129.266 5.26207C128.676 4.7152 127.799 4.44176 126.635 4.44176H122.64V10.4609ZM0.122692 47V32.4545H5.20792C6.22118 32.4545 7.05688 32.6297 7.71502 32.9801C8.37317 33.3258 8.86322 33.7921 9.18519 34.3793C9.50716 34.9616 9.66815 35.608 9.66815 36.3182C9.66815 36.9432 9.55688 37.4593 9.33434 37.8665C9.11654 38.2737 8.82771 38.5956 8.46786 38.8324C8.11275 39.0691 7.72686 39.2443 7.31019 39.358V39.5C7.75527 39.5284 8.20271 39.6847 8.65252 39.9688C9.10233 40.2528 9.47875 40.66 9.78178 41.1903C10.0848 41.7206 10.2363 42.3693 10.2363 43.1364C10.2363 43.8655 10.0706 44.5213 9.73917 45.1037C9.40773 45.6861 8.88453 46.1477 8.16957 46.4886C7.4546 46.8295 6.52421 47 5.37837 47H0.122692ZM1.88406 45.4375H5.37837C6.52894 45.4375 7.3457 45.215 7.82866 44.7699C8.31635 44.3201 8.56019 43.7756 8.56019 43.1364C8.56019 42.6439 8.43472 42.1894 8.18377 41.7727C7.93282 41.3513 7.57534 41.0152 7.11133 40.7642C6.64731 40.5085 6.09807 40.3807 5.4636 40.3807H1.88406V45.4375ZM1.88406 38.8466H5.1511C5.6814 38.8466 6.15962 38.7424 6.58576 38.5341C7.01663 38.3258 7.35754 38.0322 7.60849 37.6534C7.86417 37.2746 7.99201 36.8295 7.99201 36.3182C7.99201 35.679 7.76947 35.1368 7.3244 34.6918C6.87932 34.242 6.17383 34.017 5.20792 34.017H1.88406V38.8466ZM17.4771 47.2273C16.426 47.2273 15.5192 46.9953 14.7569 46.5312C13.9993 46.0625 13.4146 45.4091 13.0027 44.571C12.5955 43.7282 12.3919 42.7481 12.3919 41.6307C12.3919 40.5133 12.5955 39.5284 13.0027 38.6761C13.4146 37.8191 13.9875 37.1515 14.7214 36.6733C15.46 36.1903 16.3218 35.9489 17.3066 35.9489C17.8748 35.9489 18.4359 36.0436 18.9899 36.233C19.5439 36.4223 20.0481 36.7301 20.5027 37.1562C20.9572 37.5777 21.3194 38.1364 21.5893 38.8324C21.8592 39.5284 21.9941 40.3854 21.9941 41.4034V42.1136H13.585V40.6648H20.2896C20.2896 40.0492 20.1665 39.5 19.9203 39.017C19.6788 38.5341 19.3332 38.1529 18.8833 37.8736C18.4383 37.5942 17.9127 37.4545 17.3066 37.4545C16.639 37.4545 16.0614 37.6203 15.5737 37.9517C15.0907 38.2784 14.719 38.7045 14.4586 39.2301C14.1982 39.7557 14.068 40.3191 14.068 40.9205V41.8864C14.068 42.7102 14.21 43.4086 14.4941 43.9815C14.783 44.5497 15.1831 44.983 15.6944 45.2812C16.2058 45.5748 16.8 45.7216 17.4771 45.7216C17.9174 45.7216 18.3152 45.66 18.6703 45.5369C19.0301 45.4091 19.3403 45.2197 19.6007 44.9688C19.8611 44.7131 20.0623 44.3958 20.2044 44.017L21.8237 44.4716C21.6532 45.0208 21.3668 45.5038 20.9643 45.9205C20.5618 46.3324 20.0647 46.6544 19.4728 46.8864C18.881 47.1136 18.2157 47.2273 17.4771 47.2273ZM32.2711 38.5341L30.7654 38.9602C30.6708 38.7093 30.5311 38.4654 30.3464 38.2287C30.1665 37.9872 29.9203 37.7884 29.6078 37.6321C29.2953 37.4759 28.8952 37.3977 28.4075 37.3977C27.7399 37.3977 27.1835 37.5516 26.7385 37.8594C26.2981 38.1624 26.0779 38.5483 26.0779 39.017C26.0779 39.4337 26.2295 39.7628 26.5325 40.0043C26.8355 40.2457 27.309 40.447 27.9529 40.608L29.5723 41.0057C30.5476 41.2424 31.2744 41.6046 31.7527 42.0923C32.2309 42.5753 32.47 43.1979 32.47 43.9602C32.47 44.5852 32.2901 45.1439 31.9302 45.6364C31.5751 46.1288 31.0779 46.517 30.4387 46.8011C29.7995 47.0852 29.0562 47.2273 28.2086 47.2273C27.0959 47.2273 26.175 46.9858 25.4458 46.5028C24.7167 46.0199 24.255 45.3144 24.0609 44.3864L25.6518 43.9886C25.8033 44.5758 26.0898 45.0161 26.5112 45.3097C26.9373 45.6032 27.4937 45.75 28.1802 45.75C28.9615 45.75 29.5817 45.5843 30.041 45.2528C30.505 44.9167 30.737 44.5142 30.737 44.0455C30.737 43.6667 30.6045 43.3494 30.3393 43.0938C30.0742 42.8333 29.667 42.6392 29.1177 42.5114L27.2995 42.0852C26.3005 41.8485 25.5666 41.4815 25.0978 40.9844C24.6338 40.4825 24.4018 39.8551 24.4018 39.1023C24.4018 38.4867 24.5746 37.9422 24.9203 37.4688C25.2707 36.9953 25.7465 36.6236 26.3478 36.3537C26.9539 36.0838 27.6404 35.9489 28.4075 35.9489C29.487 35.9489 30.3346 36.1856 30.9501 36.6591C31.5704 37.1326 32.0107 37.7576 32.2711 38.5341ZM39.7374 36.0909V37.5114H34.084V36.0909H39.7374ZM35.7317 33.4773H37.4078V43.875C37.4078 44.3485 37.4765 44.7036 37.6138 44.9403C37.7559 45.1723 37.9358 45.3286 38.1536 45.4091C38.3761 45.4848 38.6105 45.5227 38.8567 45.5227C39.0414 45.5227 39.1929 45.5133 39.3113 45.4943C39.4296 45.4706 39.5243 45.4517 39.5953 45.4375L39.9363 46.9432C39.8226 46.9858 39.664 47.0284 39.4604 47.071C39.2568 47.1184 38.9988 47.142 38.6863 47.142C38.2128 47.142 37.7488 47.0402 37.2942 46.8366C36.8444 46.633 36.4703 46.3229 36.1721 45.9062C35.8785 45.4896 35.7317 44.964 35.7317 44.3295V33.4773ZM49.5598 40.4375V47H47.8837V32.4545H49.5598V37.7955H49.7019C49.9576 37.232 50.3411 36.7846 50.8525 36.4531C51.3685 36.117 52.0551 35.9489 52.9121 35.9489C53.6555 35.9489 54.3065 36.098 54.8652 36.3963C55.4239 36.6899 55.8572 37.142 56.165 37.7528C56.4775 38.3589 56.6337 39.1307 56.6337 40.0682V47H54.9576V40.1818C54.9576 39.3153 54.7327 38.6454 54.2828 38.1719C53.8378 37.6937 53.2199 37.4545 52.4292 37.4545C51.8799 37.4545 51.3875 37.5705 50.9519 37.8026C50.521 38.0346 50.1801 38.3731 49.9292 38.8182C49.6829 39.2633 49.5598 39.803 49.5598 40.4375ZM59.7001 47V36.0909H61.3762V47H59.7001ZM60.5524 34.2727C60.2257 34.2727 59.944 34.1615 59.7072 33.9389C59.4752 33.7164 59.3592 33.4489 59.3592 33.1364C59.3592 32.8239 59.4752 32.5563 59.7072 32.3338C59.944 32.1113 60.2257 32 60.5524 32C60.8791 32 61.1584 32.1113 61.3904 32.3338C61.6272 32.5563 61.7456 32.8239 61.7456 33.1364C61.7456 33.4489 61.6272 33.7164 61.3904 33.9389C61.1584 34.1615 60.8791 34.2727 60.5524 34.2727ZM64.4462 36.0909H66.1223V47.7955C66.1223 48.4678 66.0063 49.0502 65.7743 49.5426C65.5471 50.035 65.2014 50.4162 64.7374 50.6861C64.2781 50.956 63.6981 51.0909 62.9973 51.0909C62.9405 51.0909 62.8837 51.0909 62.8269 51.0909C62.7701 51.0909 62.7132 51.0909 62.6564 51.0909V49.5284C62.7132 49.5284 62.7653 49.5284 62.8127 49.5284C62.86 49.5284 62.9121 49.5284 62.9689 49.5284C63.4803 49.5284 63.8543 49.3769 64.0911 49.0739C64.3278 48.7756 64.4462 48.3494 64.4462 47.7955V36.0909ZM65.2701 34.2727C64.9434 34.2727 64.6616 34.1615 64.4249 33.9389C64.1929 33.7164 64.0769 33.4489 64.0769 33.1364C64.0769 32.8239 64.1929 32.5563 64.4249 32.3338C64.6616 32.1113 64.9434 32 65.2701 32C65.5968 32 65.8761 32.1113 66.1081 32.3338C66.3449 32.5563 66.4632 32.8239 66.4632 33.1364C66.4632 33.4489 66.3449 33.7164 66.1081 33.9389C65.8761 34.1615 65.5968 34.2727 65.2701 34.2727ZM72.4025 47.2557C71.7112 47.2557 71.0839 47.1255 70.5204 46.8651C69.957 46.5999 69.5095 46.2188 69.1781 45.7216C68.8467 45.2197 68.6809 44.6136 68.6809 43.9034C68.6809 43.2784 68.804 42.7718 69.0502 42.3835C69.2965 41.9905 69.6255 41.6828 70.0375 41.4602C70.4494 41.2377 70.9039 41.072 71.4011 40.9631C71.903 40.8494 72.4073 40.7595 72.9139 40.6932C73.5768 40.608 74.1142 40.544 74.5261 40.5014C74.9428 40.4541 75.2458 40.3759 75.4352 40.267C75.6293 40.1581 75.7264 39.9687 75.7264 39.6989V39.642C75.7264 38.9413 75.5346 38.3968 75.1511 38.0085C74.7723 37.6203 74.197 37.4261 73.4252 37.4261C72.6251 37.4261 71.9977 37.6013 71.5431 37.9517C71.0886 38.3021 70.769 38.6761 70.5843 39.0739L68.9934 38.5057C69.2775 37.8428 69.6563 37.3267 70.1298 36.9574C70.608 36.5833 71.1288 36.3229 71.6923 36.1761C72.2605 36.0246 72.8192 35.9489 73.3684 35.9489C73.7188 35.9489 74.1213 35.9915 74.5758 36.0767C75.0351 36.1572 75.4778 36.3253 75.9039 36.581C76.3348 36.8366 76.6923 37.2225 76.9764 37.7386C77.2605 38.2547 77.4025 38.946 77.4025 39.8125V47H75.7264V45.5227H75.6412C75.5275 45.7595 75.3381 46.0128 75.073 46.2827C74.8078 46.5526 74.4551 46.7822 74.0147 46.9716C73.5744 47.161 73.037 47.2557 72.4025 47.2557ZM72.6582 45.75C73.3211 45.75 73.8798 45.6198 74.3343 45.3594C74.7936 45.099 75.1393 44.7628 75.3713 44.3509C75.608 43.9389 75.7264 43.5057 75.7264 43.0511V41.517C75.6554 41.6023 75.4991 41.6804 75.2576 41.7514C75.0209 41.8177 74.7463 41.8769 74.4338 41.929C74.126 41.9763 73.8253 42.0189 73.5318 42.0568C73.243 42.09 73.0086 42.1184 72.8287 42.142C72.3931 42.1989 71.9859 42.2912 71.6071 42.419C71.233 42.5421 70.93 42.7292 70.698 42.9801C70.4707 43.2263 70.3571 43.5625 70.3571 43.9886C70.3571 44.571 70.5725 45.0114 71.0034 45.3097C71.439 45.6032 71.9906 45.75 72.6582 45.75ZM80.6891 47V32.4545H82.3652V37.8239H82.5073C82.6304 37.6345 82.8008 37.393 83.0186 37.0994C83.2412 36.8011 83.5584 36.536 83.9703 36.304C84.387 36.0672 84.9505 35.9489 85.6607 35.9489C86.5792 35.9489 87.3889 36.1785 88.0897 36.6378C88.7904 37.0971 89.3373 37.7481 89.7303 38.5909C90.1233 39.4337 90.3198 40.428 90.3198 41.5739C90.3198 42.7292 90.1233 43.7306 89.7303 44.5781C89.3373 45.4209 88.7928 46.0743 88.0968 46.5384C87.4007 46.9976 86.5982 47.2273 85.6891 47.2273C84.9883 47.2273 84.4273 47.1113 84.0059 46.8793C83.5845 46.6425 83.2601 46.375 83.0328 46.0767C82.8056 45.7737 82.6304 45.5227 82.5073 45.3239H82.3084V47H80.6891ZM82.3368 41.5455C82.3368 42.3693 82.4576 43.0961 82.699 43.7259C82.9405 44.3509 83.2933 44.8409 83.7573 45.196C84.2213 45.5464 84.7895 45.7216 85.4618 45.7216C86.1626 45.7216 86.7473 45.5369 87.2161 45.1676C87.6896 44.7936 88.0447 44.2917 88.2814 43.6619C88.5229 43.0275 88.6436 42.322 88.6436 41.5455C88.6436 40.7784 88.5253 40.0871 88.2885 39.4716C88.0565 38.8513 87.7038 38.3613 87.2303 38.0014C86.7615 37.6368 86.1721 37.4545 85.4618 37.4545C84.78 37.4545 84.2071 37.6274 83.7431 37.973C83.2791 38.3139 82.9287 38.7921 82.6919 39.4077C82.4552 40.0185 82.3368 40.7311 82.3368 41.5455ZM106.236 38.5341L104.73 38.9602C104.636 38.7093 104.496 38.4654 104.311 38.2287C104.131 37.9872 103.885 37.7884 103.573 37.6321C103.26 37.4759 102.86 37.3977 102.372 37.3977C101.705 37.3977 101.148 37.5516 100.703 37.8594C100.263 38.1624 100.043 38.5483 100.043 39.017C100.043 39.4337 100.194 39.7628 100.497 40.0043C100.8 40.2457 101.274 40.447 101.918 40.608L103.537 41.0057C104.512 41.2424 105.239 41.6046 105.718 42.0923C106.196 42.5753 106.435 43.1979 106.435 43.9602C106.435 44.5852 106.255 45.1439 105.895 45.6364C105.54 46.1288 105.043 46.517 104.404 46.8011C103.764 47.0852 103.021 47.2273 102.173 47.2273C101.061 47.2273 100.14 46.9858 99.4107 46.5028C98.6815 46.0199 98.2199 45.3144 98.0257 44.3864L99.6167 43.9886C99.7682 44.5758 100.055 45.0161 100.476 45.3097C100.902 45.6032 101.459 45.75 102.145 45.75C102.926 45.75 103.547 45.5843 104.006 45.2528C104.47 44.9167 104.702 44.5142 104.702 44.0455C104.702 43.6667 104.569 43.3494 104.304 43.0938C104.039 42.8333 103.632 42.6392 103.083 42.5114L101.264 42.0852C100.265 41.8485 99.5314 41.4815 99.0627 40.9844C98.5987 40.4825 98.3667 39.8551 98.3667 39.1023C98.3667 38.4867 98.5395 37.9422 98.8851 37.4688C99.2355 36.9953 99.7114 36.6236 100.313 36.3537C100.919 36.0838 101.605 35.9489 102.372 35.9489C103.452 35.9489 104.299 36.1856 104.915 36.6591C105.535 37.1326 105.976 37.7576 106.236 38.5341ZM113.532 47.2273C112.481 47.2273 111.574 46.9953 110.812 46.5312C110.054 46.0625 109.469 45.4091 109.057 44.571C108.65 43.7282 108.447 42.7481 108.447 41.6307C108.447 40.5133 108.65 39.5284 109.057 38.6761C109.469 37.8191 110.042 37.1515 110.776 36.6733C111.515 36.1903 112.376 35.9489 113.361 35.9489C113.93 35.9489 114.491 36.0436 115.045 36.233C115.599 36.4223 116.103 36.7301 116.557 37.1562C117.012 37.5777 117.374 38.1364 117.644 38.8324C117.914 39.5284 118.049 40.3854 118.049 41.4034V42.1136H109.64V40.6648H116.344C116.344 40.0492 116.221 39.5 115.975 39.017C115.733 38.5341 115.388 38.1529 114.938 37.8736C114.493 37.5942 113.967 37.4545 113.361 37.4545C112.694 37.4545 112.116 37.6203 111.628 37.9517C111.145 38.2784 110.774 38.7045 110.513 39.2301C110.253 39.7557 110.123 40.3191 110.123 40.9205V41.8864C110.123 42.7102 110.265 43.4086 110.549 43.9815C110.838 44.5497 111.238 44.983 111.749 45.2812C112.26 45.5748 112.855 45.7216 113.532 45.7216C113.972 45.7216 114.37 45.66 114.725 45.5369C115.085 45.4091 115.395 45.2197 115.655 44.9688C115.916 44.7131 116.117 44.3958 116.259 44.017L117.878 44.4716C117.708 45.0208 117.421 45.5038 117.019 45.9205C116.617 46.3324 116.119 46.6544 115.528 46.8864C114.936 47.1136 114.27 47.2273 113.532 47.2273ZM122.275 32.4545V47H120.599V32.4545H122.275ZM127.021 32.4545V47H125.345V32.4545H127.021ZM134.665 47.2273C133.613 47.2273 132.707 46.9953 131.944 46.5312C131.187 46.0625 130.602 45.4091 130.19 44.571C129.783 43.7282 129.579 42.7481 129.579 41.6307C129.579 40.5133 129.783 39.5284 130.19 38.6761C130.602 37.8191 131.175 37.1515 131.909 36.6733C132.648 36.1903 133.509 35.9489 134.494 35.9489C135.062 35.9489 135.623 36.0436 136.177 36.233C136.731 36.4223 137.236 36.7301 137.69 37.1562C138.145 37.5777 138.507 38.1364 138.777 38.8324C139.047 39.5284 139.182 40.3854 139.182 41.4034V42.1136H130.773V40.6648H137.477C137.477 40.0492 137.354 39.5 137.108 39.017C136.866 38.5341 136.521 38.1529 136.071 37.8736C135.626 37.5942 135.1 37.4545 134.494 37.4545C133.827 37.4545 133.249 37.6203 132.761 37.9517C132.278 38.2784 131.907 38.7045 131.646 39.2301C131.386 39.7557 131.256 40.3191 131.256 40.9205V41.8864C131.256 42.7102 131.398 43.4086 131.682 43.9815C131.97 44.5497 132.371 44.983 132.882 45.2812C133.393 45.5748 133.988 45.7216 134.665 45.7216C135.105 45.7216 135.503 45.66 135.858 45.5369C136.218 45.4091 136.528 45.2197 136.788 44.9688C137.049 44.7131 137.25 44.3958 137.392 44.017L139.011 44.4716C138.841 45.0208 138.554 45.5038 138.152 45.9205C137.749 46.3324 137.252 46.6544 136.66 46.8864C136.068 47.1136 135.403 47.2273 134.665 47.2273ZM141.731 47V36.0909H143.351V37.7386H143.464C143.663 37.1989 144.023 36.7609 144.544 36.4247C145.065 36.0885 145.652 35.9205 146.305 35.9205C146.428 35.9205 146.582 35.9228 146.767 35.9276C146.952 35.9323 147.091 35.9394 147.186 35.9489V37.6534C147.129 37.6392 146.999 37.6179 146.795 37.5895C146.596 37.5563 146.386 37.5398 146.163 37.5398C145.633 37.5398 145.159 37.651 144.743 37.8736C144.331 38.0914 144.004 38.3944 143.763 38.7827C143.526 39.1662 143.407 39.6042 143.407 40.0966V47H141.731Z" fill="black"/>
</svg>
