<svg width="280" height="50" viewBox="0 0 280 50" fill="none" xmlns="http://www.w3.org/2000/svg">
<path d="M25 0L30.6129 17.2746H48.7764L34.0818 27.9508L39.6946 45.2254L25 34.5491L10.3054 45.2254L15.9182 27.9508L1.22359 17.2746H19.3871L25 0Z" fill="#ADA5A5"/>
<path d="M83 0L88.6129 17.2746H106.776L92.0818 27.9508L97.6946 45.2254L83 34.5491L68.3054 45.2254L73.9182 27.9508L59.2236 17.2746H77.3871L83 0Z" fill="#ADA5A5"/>
<path d="M141 0L146.613 17.2746H164.776L150.082 27.9508L155.695 45.2254L141 34.5491L126.305 45.2254L131.918 27.9508L117.224 17.2746H135.387L141 0Z" fill="#ADA5A5"/>
<path d="M198 0L203.613 17.2746H221.776L207.082 27.9508L212.695 45.2254L198 34.5491L183.305 45.2254L188.918 27.9508L174.224 17.2746H192.387L198 0Z" fill="#ADA5A5"/>
<path d="M255 0L260.613 17.2746H278.776L264.082 27.9508L269.695 45.2254L255 34.5491L240.305 45.2254L245.918 27.9508L231.224 17.2746H249.387L255 0Z" fill="#ADA5A5"/>
</svg>
