<svg width="499" height="231" viewBox="0 0 499 231" fill="none" xmlns="http://www.w3.org/2000/svg">
<rect x="0.5" y="0.5" width="498" height="230" fill="#F5F5F5" stroke="black"/>
<path d="M33.8537 45.1136H36.2401L37.6534 46.946L38.6619 48.1392L41.0838 51.25H38.527L36.8793 49.1619L36.1761 48.1676L33.8537 45.1136ZM41.4318 42.7273C41.4318 44.2945 41.1383 45.6368 40.5511 46.7543C39.9688 47.867 39.1733 48.7192 38.1648 49.3111C37.161 49.9029 36.0223 50.1989 34.7486 50.1989C33.4749 50.1989 32.3338 49.9029 31.3253 49.3111C30.3215 48.7145 29.526 47.8598 28.9389 46.7472C28.3565 45.6297 28.0653 44.2898 28.0653 42.7273C28.0653 41.16 28.3565 39.8201 28.9389 38.7074C29.526 37.59 30.3215 36.7353 31.3253 36.1435C32.3338 35.5516 33.4749 35.2557 34.7486 35.2557C36.0223 35.2557 37.161 35.5516 38.1648 36.1435C39.1733 36.7353 39.9688 37.59 40.5511 38.7074C41.1383 39.8201 41.4318 41.16 41.4318 42.7273ZM38.7827 42.7273C38.7827 41.6241 38.6098 40.6937 38.2642 39.9361C37.9233 39.1738 37.4498 38.5985 36.8438 38.2102C36.2377 37.8172 35.5393 37.6207 34.7486 37.6207C33.9579 37.6207 33.2595 37.8172 32.6534 38.2102C32.0473 38.5985 31.5715 39.1738 31.2259 39.9361C30.8849 40.6937 30.7145 41.6241 30.7145 42.7273C30.7145 43.8305 30.8849 44.7633 31.2259 45.5256C31.5715 46.2831 32.0473 46.8584 32.6534 47.2514C33.2595 47.6397 33.9579 47.8338 34.7486 47.8338C35.5393 47.8338 36.2377 47.6397 36.8438 47.2514C37.4498 46.8584 37.9233 46.2831 38.2642 45.5256C38.6098 44.7633 38.7827 43.8305 38.7827 42.7273ZM50.782 45.4119V39.0909H53.353V50H50.8601V48.0611H50.7464C50.5002 48.6719 50.0954 49.1714 49.532 49.5597C48.9732 49.9479 48.2843 50.142 47.4652 50.142C46.7502 50.142 46.1181 49.9834 45.5689 49.6662C45.0244 49.3442 44.5982 48.8778 44.2905 48.267C43.9827 47.6515 43.8288 46.9081 43.8288 46.0369V39.0909H46.3999V45.6392C46.3999 46.3305 46.5893 46.8797 46.968 47.2869C47.3468 47.6941 47.844 47.8977 48.4595 47.8977C48.8383 47.8977 49.2053 47.8054 49.5604 47.6207C49.9155 47.4361 50.2067 47.1615 50.4339 46.7969C50.666 46.4276 50.782 45.9659 50.782 45.4119ZM59.136 50.2202C58.4447 50.2202 57.8221 50.0971 57.2681 49.8509C56.7189 49.5999 56.2833 49.2306 55.9613 48.7429C55.6441 48.2552 55.4854 47.6539 55.4854 46.9389C55.4854 46.3234 55.5991 45.8144 55.8263 45.4119C56.0536 45.0095 56.3638 44.6875 56.7567 44.446C57.1497 44.2045 57.5924 44.0223 58.0849 43.8991C58.582 43.7713 59.0958 43.679 59.6261 43.6222C60.2653 43.5559 60.7837 43.4967 61.1815 43.4446C61.5792 43.3878 61.868 43.3026 62.0479 43.1889C62.2326 43.0705 62.3249 42.8883 62.3249 42.642V42.5994C62.3249 42.0644 62.1663 41.6501 61.8491 41.3565C61.5318 41.063 61.0749 40.9162 60.4783 40.9162C59.8486 40.9162 59.3491 41.0535 58.9798 41.3281C58.6152 41.6027 58.369 41.9271 58.2411 42.3011L55.8406 41.9602C56.0299 41.2973 56.3424 40.7434 56.7781 40.2983C57.2137 39.8485 57.7463 39.5123 58.3761 39.2898C59.0058 39.0625 59.7018 38.9489 60.4641 38.9489C60.9897 38.9489 61.5129 39.0104 62.0337 39.1335C62.5546 39.2566 63.0304 39.4602 63.4613 39.7443C63.8922 40.0237 64.2378 40.4048 64.4982 40.8878C64.7634 41.3707 64.896 41.9744 64.896 42.6989V50H62.4244V48.5014H62.3391C62.1829 48.8045 61.9627 49.0885 61.6786 49.3537C61.3993 49.6141 61.0465 49.8248 60.6204 49.9858C60.199 50.142 59.7042 50.2202 59.136 50.2202ZM59.8036 48.331C60.3197 48.331 60.7672 48.2292 61.146 48.0256C61.5247 47.8172 61.8159 47.5426 62.0195 47.2017C62.2279 46.8608 62.332 46.4891 62.332 46.0866V44.8011C62.2515 44.8674 62.1142 44.929 61.9201 44.9858C61.7307 45.0426 61.5176 45.0923 61.2809 45.1349C61.0442 45.1776 60.8098 45.2154 60.5778 45.2486C60.3458 45.2817 60.1445 45.3101 59.9741 45.3338C59.5906 45.3859 59.2473 45.4711 58.9442 45.5895C58.6412 45.7079 58.4021 45.8736 58.2269 46.0866C58.0517 46.295 57.9641 46.5649 57.9641 46.8963C57.9641 47.3698 58.137 47.7273 58.4826 47.9688C58.8282 48.2102 59.2686 48.331 59.8036 48.331ZM70.0522 43.608V50H67.4812V39.0909H69.9386V40.9446H70.0664C70.3174 40.3338 70.7174 39.8485 71.2667 39.4886C71.8207 39.1288 72.5049 38.9489 73.3192 38.9489C74.0721 38.9489 74.7279 39.1098 75.2866 39.4318C75.85 39.7538 76.2856 40.2202 76.5934 40.831C76.9059 41.4418 77.0598 42.1828 77.055 43.054V50H74.484V43.4517C74.484 42.7225 74.2946 42.152 73.9158 41.7401C73.5418 41.3281 73.0233 41.1222 72.3604 41.1222C71.9106 41.1222 71.5105 41.2216 71.1602 41.4205C70.8145 41.6146 70.5423 41.8963 70.3434 42.2656C70.1493 42.6349 70.0522 43.0824 70.0522 43.608ZM85.1161 39.0909V41.0795H78.8448V39.0909H85.1161ZM80.3931 36.4773H82.9641V46.7188C82.9641 47.0644 83.0162 47.3295 83.1204 47.5142C83.2293 47.6941 83.3713 47.8172 83.5465 47.8835C83.7217 47.9498 83.9158 47.983 84.1289 47.983C84.2899 47.983 84.4367 47.9711 84.5692 47.9474C84.7066 47.9238 84.8107 47.9025 84.8817 47.8835L85.315 49.8935C85.1777 49.9408 84.9812 49.9929 84.7255 50.0497C84.4746 50.1065 84.1668 50.1397 83.8022 50.1491C83.1583 50.1681 82.5782 50.071 82.0621 49.858C81.546 49.6402 81.1365 49.304 80.8335 48.8494C80.5352 48.3949 80.3884 47.8267 80.3931 47.1449V36.4773ZM87.2663 50V39.0909H89.8374V50H87.2663ZM88.5589 37.5426C88.1518 37.5426 87.8014 37.4077 87.5078 37.1378C87.2143 36.8632 87.0675 36.5341 87.0675 36.1506C87.0675 35.7623 87.2143 35.4332 87.5078 35.1634C87.8014 34.8887 88.1518 34.7514 88.5589 34.7514C88.9709 34.7514 89.3213 34.8887 89.6101 35.1634C89.9036 35.4332 90.0504 35.7623 90.0504 36.1506C90.0504 36.5341 89.9036 36.8632 89.6101 37.1378C89.3213 37.4077 88.9709 37.5426 88.5589 37.5426ZM97.9286 39.0909V41.0795H91.6573V39.0909H97.9286ZM93.2056 36.4773H95.7766V46.7188C95.7766 47.0644 95.8287 47.3295 95.9329 47.5142C96.0418 47.6941 96.1838 47.8172 96.359 47.8835C96.5342 47.9498 96.7283 47.983 96.9414 47.983C97.1024 47.983 97.2492 47.9711 97.3817 47.9474C97.5191 47.9238 97.6232 47.9025 97.6942 47.8835L98.1275 49.8935C97.9902 49.9408 97.7937 49.9929 97.538 50.0497C97.2871 50.1065 96.9793 50.1397 96.6147 50.1491C95.9708 50.1681 95.3907 50.071 94.8746 49.858C94.3585 49.6402 93.949 49.304 93.646 48.8494C93.3477 48.3949 93.2009 47.8267 93.2056 47.1449V36.4773ZM101.677 54.0909C101.326 54.0909 101.002 54.0625 100.704 54.0057C100.41 53.9536 100.176 53.892 100.001 53.821L100.597 51.8182C100.971 51.9271 101.305 51.9792 101.599 51.9744C101.892 51.9697 102.15 51.8774 102.373 51.6974C102.6 51.5223 102.792 51.2287 102.948 50.8168L103.168 50.2273L99.2124 39.0909H101.94L104.454 47.3295H104.567L107.089 39.0909H109.823L105.455 51.321C105.252 51.8987 104.982 52.3935 104.646 52.8054C104.309 53.2221 103.897 53.5393 103.41 53.7571C102.927 53.9796 102.349 54.0909 101.677 54.0909ZM177.678 48.2528C177.247 48.2528 176.878 48.1013 176.57 47.7983C176.263 47.4905 176.111 47.1212 176.116 46.6903C176.111 46.2642 176.263 45.8996 176.57 45.5966C176.878 45.2936 177.247 45.142 177.678 45.142C178.095 45.142 178.457 45.2936 178.765 45.5966C179.077 45.8996 179.236 46.2642 179.241 46.6903C179.236 46.9792 179.16 47.242 179.013 47.4787C178.871 47.7154 178.682 47.9048 178.445 48.0469C178.213 48.1842 177.958 48.2528 177.678 48.2528ZM177.678 41.044C177.247 41.044 176.878 40.8925 176.57 40.5895C176.263 40.2817 176.111 39.9124 176.116 39.4815C176.111 39.0554 176.263 38.6908 176.57 38.3878C176.878 38.08 177.247 37.9261 177.678 37.9261C178.095 37.9261 178.457 38.08 178.765 38.3878C179.077 38.6908 179.236 39.0554 179.241 39.4815C179.236 39.7656 179.16 40.026 179.013 40.2628C178.871 40.4995 178.682 40.6889 178.445 40.831C178.213 40.973 177.958 41.044 177.678 41.044ZM192.744 35.4545V50H190.109V38.0185H190.024L186.622 40.1918V37.777L190.237 35.4545H192.744ZM33.3636 98H28.4347V83.4545H33.4631C34.9072 83.4545 36.1477 83.7457 37.1847 84.3281C38.2263 84.9058 39.0265 85.7367 39.5852 86.821C40.1439 87.9053 40.4233 89.2027 40.4233 90.7131C40.4233 92.2282 40.1416 93.5303 39.5781 94.6193C39.0194 95.7083 38.2121 96.544 37.1562 97.1264C36.1051 97.7088 34.8409 98 33.3636 98ZM31.0696 95.7202H33.2358C34.2491 95.7202 35.0942 95.5355 35.7713 95.1662C36.4484 94.7921 36.9574 94.2358 37.2983 93.4972C37.6392 92.7538 37.8097 91.8258 37.8097 90.7131C37.8097 89.6004 37.6392 88.6771 37.2983 87.9432C36.9574 87.2045 36.4531 86.6529 35.7855 86.2884C35.1226 85.919 34.2988 85.7344 33.3139 85.7344H31.0696V95.7202ZM42.8132 98V87.0909H45.3842V98H42.8132ZM44.1058 85.5426C43.6986 85.5426 43.3482 85.4077 43.0547 85.1378C42.7611 84.8632 42.6143 84.5341 42.6143 84.1506C42.6143 83.7623 42.7611 83.4332 43.0547 83.1634C43.3482 82.8887 43.6986 82.7514 44.1058 82.7514C44.5178 82.7514 44.8681 82.8887 45.157 83.1634C45.4505 83.4332 45.5973 83.7623 45.5973 84.1506C45.5973 84.5341 45.4505 84.8632 45.157 85.1378C44.8681 85.4077 44.5178 85.5426 44.1058 85.5426ZM56.6502 89.9744L54.3065 90.2301C54.2402 89.9934 54.1242 89.7708 53.9585 89.5625C53.7975 89.3542 53.5797 89.1861 53.305 89.0582C53.0304 88.9304 52.6942 88.8665 52.2965 88.8665C51.7615 88.8665 51.3117 88.9825 50.9471 89.2145C50.5872 89.4465 50.4097 89.7472 50.4144 90.1165C50.4097 90.4337 50.5257 90.6918 50.7624 90.8906C51.0039 91.0895 51.4016 91.2528 51.9556 91.3807L53.8164 91.7784C54.8486 92.0009 55.6156 92.3537 56.1175 92.8366C56.6242 93.3196 56.8799 93.9517 56.8846 94.733C56.8799 95.4195 56.6786 96.0256 56.2809 96.5511C55.8879 97.072 55.341 97.4792 54.6403 97.7727C53.9395 98.0663 53.1346 98.2131 52.2255 98.2131C50.8903 98.2131 49.8155 97.9337 49.0011 97.375C48.1867 96.8116 47.7013 96.0279 47.5451 95.0241L50.0522 94.7827C50.1658 95.2751 50.4073 95.6468 50.7766 95.8977C51.146 96.1487 51.6265 96.2741 52.2184 96.2741C52.8292 96.2741 53.3192 96.1487 53.6886 95.8977C54.0626 95.6468 54.2496 95.3366 54.2496 94.9673C54.2496 94.6548 54.1289 94.3968 53.8874 94.1932C53.6507 93.9896 53.2814 93.8333 52.7795 93.7244L50.9187 93.3338C49.8723 93.116 49.0981 92.7491 48.5962 92.233C48.0943 91.7121 47.8458 91.054 47.8505 90.2585C47.8458 89.5862 48.0281 89.0038 48.3974 88.5114C48.7714 88.0142 49.2899 87.6307 49.9528 87.3608C50.6204 87.0862 51.3898 86.9489 52.261 86.9489C53.5394 86.9489 54.5456 87.2211 55.2795 87.7656C56.0181 88.3101 56.475 89.0464 56.6502 89.9744ZM63.7631 98.2131C62.6741 98.2131 61.739 97.974 60.9577 97.4957C60.1812 97.0175 59.5823 96.357 59.1609 95.5142C58.7442 94.6667 58.5359 93.6913 58.5359 92.5881C58.5359 91.4801 58.7489 90.5024 59.1751 89.6548C59.6012 88.8026 60.2025 88.1397 60.979 87.6662C61.7603 87.188 62.6836 86.9489 63.7489 86.9489C64.6344 86.9489 65.418 87.1122 66.0998 87.4389C66.7863 87.7609 67.3332 88.2178 67.7404 88.8097C68.1476 89.3968 68.3796 90.0833 68.4364 90.8693H65.979C65.8796 90.3437 65.6429 89.9058 65.2688 89.5554C64.8995 89.2003 64.4047 89.0227 63.7844 89.0227C63.2589 89.0227 62.7972 89.1648 62.3995 89.4489C62.0018 89.7282 61.6916 90.1307 61.4691 90.6562C61.2513 91.1818 61.1424 91.8116 61.1424 92.5455C61.1424 93.2888 61.2513 93.928 61.4691 94.4631C61.6869 94.9934 61.9923 95.4029 62.3853 95.6918C62.783 95.9759 63.2494 96.1179 63.7844 96.1179C64.1632 96.1179 64.5018 96.0469 64.8001 95.9048C65.1031 95.758 65.3564 95.5473 65.56 95.2727C65.7636 94.9981 65.9033 94.6643 65.979 94.2713H68.4364C68.3749 95.0431 68.1476 95.7273 67.7546 96.3239C67.3616 96.9157 66.8266 97.3797 66.1495 97.7159C65.4724 98.0473 64.677 98.2131 63.7631 98.2131ZM75.3061 98.2131C74.2408 98.2131 73.3175 97.9787 72.5362 97.5099C71.755 97.0412 71.1489 96.3854 70.718 95.5426C70.2919 94.6998 70.0788 93.715 70.0788 92.5881C70.0788 91.4612 70.2919 90.474 70.718 89.6264C71.1489 88.7789 71.755 88.1207 72.5362 87.652C73.3175 87.1832 74.2408 86.9489 75.3061 86.9489C76.3714 86.9489 77.2947 87.1832 78.076 87.652C78.8572 88.1207 79.4609 88.7789 79.8871 89.6264C80.3179 90.474 80.5334 91.4612 80.5334 92.5881C80.5334 93.715 80.3179 94.6998 79.8871 95.5426C79.4609 96.3854 78.8572 97.0412 78.076 97.5099C77.2947 97.9787 76.3714 98.2131 75.3061 98.2131ZM75.3203 96.1534C75.898 96.1534 76.3809 95.9948 76.7692 95.6776C77.1574 95.3556 77.4463 94.9247 77.6357 94.3849C77.8298 93.8452 77.9268 93.2438 77.9268 92.581C77.9268 91.9134 77.8298 91.3097 77.6357 90.7699C77.4463 90.2254 77.1574 89.7921 76.7692 89.4702C76.3809 89.1482 75.898 88.9872 75.3203 88.9872C74.7285 88.9872 74.236 89.1482 73.843 89.4702C73.4548 89.7921 73.1636 90.2254 72.9695 90.7699C72.7801 91.3097 72.6854 91.9134 72.6854 92.581C72.6854 93.2438 72.7801 93.8452 72.9695 94.3849C73.1636 94.9247 73.4548 95.3556 73.843 95.6776C74.236 95.9948 74.7285 96.1534 75.3203 96.1534ZM89.6687 93.4119V87.0909H92.2397V98H89.7468V96.0611H89.6332C89.387 96.6719 88.9821 97.1714 88.4187 97.5597C87.86 97.9479 87.171 98.142 86.3519 98.142C85.637 98.142 85.0049 97.9834 84.4556 97.6662C83.9111 97.3442 83.485 96.8778 83.1772 96.267C82.8694 95.6515 82.7156 94.9081 82.7156 94.0369V87.0909H85.2866V93.6392C85.2866 94.3305 85.476 94.8797 85.8548 95.2869C86.2335 95.6941 86.7307 95.8977 87.3462 95.8977C87.725 95.8977 88.092 95.8054 88.4471 95.6207C88.8022 95.4361 89.0934 95.1615 89.3207 94.7969C89.5527 94.4276 89.6687 93.9659 89.6687 93.4119ZM97.4545 91.608V98H94.8835V87.0909H97.3409V88.9446H97.4688C97.7197 88.3338 98.1198 87.8485 98.669 87.4886C99.223 87.1288 99.9072 86.9489 100.722 86.9489C101.474 86.9489 102.13 87.1098 102.689 87.4318C103.252 87.7538 103.688 88.2202 103.996 88.831C104.308 89.4418 104.462 90.1828 104.457 91.054V98H101.886V91.4517C101.886 90.7225 101.697 90.152 101.318 89.7401C100.944 89.3281 100.426 89.1222 99.7628 89.1222C99.313 89.1222 98.9129 89.2216 98.5625 89.4205C98.2169 89.6146 97.9446 89.8963 97.7457 90.2656C97.5516 90.6349 97.4545 91.0824 97.4545 91.608ZM112.518 87.0909V89.0795H106.247V87.0909H112.518ZM107.795 84.4773H110.366V94.7188C110.366 95.0644 110.419 95.3295 110.523 95.5142C110.632 95.6941 110.774 95.8172 110.949 95.8835C111.124 95.9498 111.318 95.983 111.531 95.983C111.692 95.983 111.839 95.9711 111.972 95.9474C112.109 95.9238 112.213 95.9025 112.284 95.8835L112.717 97.8935C112.58 97.9408 112.384 97.9929 112.128 98.0497C111.877 98.1065 111.569 98.1397 111.205 98.1491C110.561 98.1681 109.981 98.071 109.464 97.858C108.948 97.6402 108.539 97.304 108.236 96.8494C107.938 96.3949 107.791 95.8267 107.795 95.1449V84.4773ZM175.784 96.2528C175.353 96.2528 174.984 96.1013 174.676 95.7983C174.368 95.4905 174.217 95.1212 174.221 94.6903C174.217 94.2642 174.368 93.8996 174.676 93.5966C174.984 93.2936 175.353 93.142 175.784 93.142C176.2 93.142 176.563 93.2936 176.87 93.5966C177.183 93.8996 177.342 94.2642 177.346 94.6903C177.342 94.9792 177.266 95.242 177.119 95.4787C176.977 95.7154 176.788 95.9048 176.551 96.0469C176.319 96.1842 176.063 96.2528 175.784 96.2528ZM175.784 89.044C175.353 89.044 174.984 88.8925 174.676 88.5895C174.368 88.2817 174.217 87.9124 174.221 87.4815C174.217 87.0554 174.368 86.6908 174.676 86.3878C174.984 86.08 175.353 85.9261 175.784 85.9261C176.2 85.9261 176.563 86.08 176.87 86.3878C177.183 86.6908 177.342 87.0554 177.346 87.4815C177.342 87.7656 177.266 88.026 177.119 88.2628C176.977 88.4995 176.788 88.6889 176.551 88.831C176.319 88.973 176.063 89.044 175.784 89.044ZM190.31 98.277C189.14 98.277 188.136 97.9811 187.298 97.3892C186.465 96.7926 185.823 95.9332 185.374 94.8111C184.929 93.6842 184.706 92.3277 184.706 90.7415C184.711 89.1553 184.936 87.8059 185.381 86.6932C185.83 85.5758 186.472 84.7235 187.305 84.1364C188.143 83.5492 189.145 83.2557 190.31 83.2557C191.474 83.2557 192.476 83.5492 193.314 84.1364C194.152 84.7235 194.794 85.5758 195.239 86.6932C195.688 87.8106 195.913 89.16 195.913 90.7415C195.913 92.3324 195.688 93.6913 195.239 94.8182C194.794 95.9403 194.152 96.7973 193.314 97.3892C192.481 97.9811 191.479 98.277 190.31 98.277ZM190.31 96.054C191.219 96.054 191.936 95.6065 192.462 94.7116C192.992 93.812 193.257 92.4886 193.257 90.7415C193.257 89.5862 193.136 88.6155 192.895 87.8295C192.653 87.0436 192.313 86.4517 191.872 86.054C191.432 85.6515 190.911 85.4503 190.31 85.4503C189.405 85.4503 188.69 85.9001 188.165 86.7997C187.639 87.6946 187.374 89.0085 187.369 90.7415C187.365 91.9015 187.481 92.8769 187.717 93.6676C187.959 94.4583 188.3 95.0549 188.74 95.4574C189.18 95.8551 189.704 96.054 190.31 96.054ZM206.05 95.2727V94.5057C206.05 93.9422 206.168 93.4238 206.405 92.9503C206.647 92.4768 206.997 92.0956 207.456 91.8068C207.916 91.518 208.472 91.3736 209.125 91.3736C209.798 91.3736 210.361 91.518 210.816 91.8068C211.27 92.0909 211.614 92.4697 211.846 92.9432C212.082 93.4167 212.201 93.9375 212.201 94.5057V95.2727C212.201 95.8362 212.082 96.3546 211.846 96.8281C211.609 97.3016 211.261 97.6828 210.801 97.9716C210.347 98.2604 209.788 98.4048 209.125 98.4048C208.462 98.4048 207.901 98.2604 207.442 97.9716C206.983 97.6828 206.635 97.3016 206.398 96.8281C206.166 96.3546 206.05 95.8362 206.05 95.2727ZM207.904 94.5057V95.2727C207.904 95.6468 207.994 95.9901 208.174 96.3026C208.354 96.6151 208.671 96.7713 209.125 96.7713C209.585 96.7713 209.9 96.6174 210.07 96.3097C210.245 95.9972 210.333 95.6515 210.333 95.2727V94.5057C210.333 94.1269 210.25 93.7812 210.084 93.4688C209.918 93.1515 209.599 92.9929 209.125 92.9929C208.68 92.9929 208.365 93.1515 208.181 93.4688C207.996 93.7812 207.904 94.1269 207.904 94.5057ZM198.657 86.9489V86.1818C198.657 85.6136 198.777 85.0928 199.019 84.6193C199.26 84.1458 199.611 83.767 200.07 83.483C200.529 83.1941 201.086 83.0497 201.739 83.0497C202.407 83.0497 202.968 83.1941 203.422 83.483C203.882 83.767 204.227 84.1458 204.459 84.6193C204.691 85.0928 204.807 85.6136 204.807 86.1818V86.9489C204.807 87.517 204.689 88.0379 204.452 88.5114C204.22 88.9801 203.874 89.3565 203.415 89.6406C202.956 89.9247 202.397 90.0668 201.739 90.0668C201.071 90.0668 200.508 89.9247 200.049 89.6406C199.594 89.3565 199.248 88.9777 199.012 88.5043C198.775 88.0308 198.657 87.5123 198.657 86.9489ZM200.525 86.1818V86.9489C200.525 87.3277 200.612 87.6733 200.787 87.9858C200.967 88.2936 201.284 88.4474 201.739 88.4474C202.194 88.4474 202.506 88.2936 202.676 87.9858C202.852 87.6733 202.939 87.3277 202.939 86.9489V86.1818C202.939 85.803 202.856 85.4574 202.691 85.1449C202.525 84.8277 202.208 84.669 201.739 84.669C201.289 84.669 200.974 84.8277 200.794 85.1449C200.614 85.4621 200.525 85.8078 200.525 86.1818ZM199.466 98L209.466 83.4545H211.242L201.242 98H199.466ZM27.7955 133.663V131.455H39.4006V133.663H34.9048V146H32.2912V133.663H27.7955ZM44.7006 146.213C43.6353 146.213 42.712 145.979 41.9308 145.51C41.1495 145.041 40.5434 144.385 40.1126 143.543C39.6864 142.7 39.4734 141.715 39.4734 140.588C39.4734 139.461 39.6864 138.474 40.1126 137.626C40.5434 136.779 41.1495 136.121 41.9308 135.652C42.712 135.183 43.6353 134.949 44.7006 134.949C45.766 134.949 46.6893 135.183 47.4705 135.652C48.2518 136.121 48.8555 136.779 49.2816 137.626C49.7125 138.474 49.9279 139.461 49.9279 140.588C49.9279 141.715 49.7125 142.7 49.2816 143.543C48.8555 144.385 48.2518 145.041 47.4705 145.51C46.6893 145.979 45.766 146.213 44.7006 146.213ZM44.7148 144.153C45.2925 144.153 45.7754 143.995 46.1637 143.678C46.552 143.356 46.8408 142.925 47.0302 142.385C47.2243 141.845 47.3214 141.244 47.3214 140.581C47.3214 139.913 47.2243 139.31 47.0302 138.77C46.8408 138.225 46.552 137.792 46.1637 137.47C45.7754 137.148 45.2925 136.987 44.7148 136.987C44.123 136.987 43.6306 137.148 43.2376 137.47C42.8493 137.792 42.5581 138.225 42.364 138.77C42.1746 139.31 42.0799 139.913 42.0799 140.581C42.0799 141.244 42.1746 141.845 42.364 142.385C42.5581 142.925 42.8493 143.356 43.2376 143.678C43.6306 143.995 44.123 144.153 44.7148 144.153ZM57.5575 135.091V137.08H51.2862V135.091H57.5575ZM52.8345 132.477H55.4055V142.719C55.4055 143.064 55.4576 143.33 55.5618 143.514C55.6707 143.694 55.8127 143.817 55.9879 143.884C56.1631 143.95 56.3572 143.983 56.5703 143.983C56.7313 143.983 56.8781 143.971 57.0107 143.947C57.148 143.924 57.2521 143.902 57.3232 143.884L57.7564 145.893C57.6191 145.941 57.4226 145.993 57.1669 146.05C56.916 146.107 56.6082 146.14 56.2436 146.149C55.5997 146.168 55.0196 146.071 54.5036 145.858C53.9875 145.64 53.5779 145.304 53.2749 144.849C52.9766 144.395 52.8298 143.827 52.8345 143.145V132.477ZM62.8469 146.22C62.1557 146.22 61.533 146.097 60.979 145.851C60.4298 145.6 59.9942 145.231 59.6722 144.743C59.355 144.255 59.1964 143.654 59.1964 142.939C59.1964 142.323 59.31 141.814 59.5373 141.412C59.7646 141.009 60.0747 140.688 60.4677 140.446C60.8607 140.205 61.3034 140.022 61.7958 139.899C62.293 139.771 62.8067 139.679 63.337 139.622C63.9762 139.556 64.4947 139.497 64.8924 139.445C65.2901 139.388 65.579 139.303 65.7589 139.189C65.9435 139.071 66.0359 138.888 66.0359 138.642V138.599C66.0359 138.064 65.8772 137.65 65.56 137.357C65.2428 137.063 64.7859 136.916 64.1893 136.916C63.5595 136.916 63.06 137.054 62.6907 137.328C62.3261 137.603 62.0799 137.927 61.9521 138.301L59.5515 137.96C59.7409 137.297 60.0534 136.743 60.489 136.298C60.9246 135.848 61.4573 135.512 62.087 135.29C62.7167 135.062 63.4128 134.949 64.1751 134.949C64.7006 134.949 65.2238 135.01 65.7447 135.134C66.2655 135.257 66.7414 135.46 67.1722 135.744C67.6031 136.024 67.9487 136.405 68.2092 136.888C68.4743 137.371 68.6069 137.974 68.6069 138.699V146H66.1353V144.501H66.0501C65.8938 144.804 65.6737 145.089 65.3896 145.354C65.1102 145.614 64.7575 145.825 64.3313 145.986C63.9099 146.142 63.4151 146.22 62.8469 146.22ZM63.5146 144.331C64.0307 144.331 64.4781 144.229 64.8569 144.026C65.2357 143.817 65.5269 143.543 65.7305 143.202C65.9388 142.861 66.043 142.489 66.043 142.087V140.801C65.9625 140.867 65.8252 140.929 65.631 140.986C65.4416 141.043 65.2286 141.092 64.9918 141.135C64.7551 141.178 64.5207 141.215 64.2887 141.249C64.0567 141.282 63.8555 141.31 63.685 141.334C63.3015 141.386 62.9582 141.471 62.6552 141.589C62.3522 141.708 62.113 141.874 61.9379 142.087C61.7627 142.295 61.6751 142.565 61.6751 142.896C61.6751 143.37 61.8479 143.727 62.1935 143.969C62.5392 144.21 62.9795 144.331 63.5146 144.331ZM73.7631 131.455V146H71.1921V131.455H73.7631ZM177.21 144.253C176.779 144.253 176.409 144.101 176.102 143.798C175.794 143.491 175.642 143.121 175.647 142.69C175.642 142.264 175.794 141.9 176.102 141.597C176.409 141.294 176.779 141.142 177.21 141.142C177.626 141.142 177.988 141.294 178.296 141.597C178.609 141.9 178.767 142.264 178.772 142.69C178.767 142.979 178.692 143.242 178.545 143.479C178.403 143.715 178.213 143.905 177.977 144.047C177.745 144.184 177.489 144.253 177.21 144.253ZM177.21 137.044C176.779 137.044 176.409 136.893 176.102 136.589C175.794 136.282 175.642 135.912 175.647 135.482C175.642 135.055 175.794 134.691 176.102 134.388C176.409 134.08 176.779 133.926 177.21 133.926C177.626 133.926 177.988 134.08 178.296 134.388C178.609 134.691 178.767 135.055 178.772 135.482C178.767 135.766 178.692 136.026 178.545 136.263C178.403 136.5 178.213 136.689 177.977 136.831C177.745 136.973 177.489 137.044 177.21 137.044ZM186.501 146V131.455H191.956C193.073 131.455 194.011 131.649 194.768 132.037C195.53 132.425 196.106 132.97 196.494 133.67C196.887 134.366 197.083 135.179 197.083 136.107C197.083 137.039 196.885 137.849 196.487 138.536C196.094 139.217 195.514 139.745 194.747 140.119C193.98 140.489 193.038 140.673 191.92 140.673H188.035V138.486H191.565C192.218 138.486 192.753 138.396 193.17 138.216C193.587 138.031 193.895 137.764 194.093 137.413C194.297 137.058 194.399 136.623 194.399 136.107C194.399 135.59 194.297 135.15 194.093 134.786C193.89 134.416 193.58 134.137 193.163 133.947C192.746 133.753 192.209 133.656 191.551 133.656H189.136V146H186.501ZM194.015 139.409L197.616 146H194.676L191.139 139.409H194.015ZM199.395 150.091V135.091H201.924V136.895H202.073C202.205 136.63 202.392 136.348 202.634 136.05C202.875 135.747 203.202 135.489 203.614 135.276C204.026 135.058 204.551 134.949 205.191 134.949C206.033 134.949 206.793 135.164 207.471 135.595C208.152 136.021 208.692 136.653 209.09 137.491C209.492 138.325 209.694 139.348 209.694 140.56C209.694 141.758 209.497 142.776 209.104 143.614C208.711 144.452 208.176 145.091 207.499 145.531C206.822 145.972 206.055 146.192 205.198 146.192C204.573 146.192 204.054 146.088 203.642 145.879C203.23 145.671 202.899 145.42 202.648 145.126C202.402 144.828 202.21 144.546 202.073 144.281H201.966V150.091H199.395ZM201.917 140.545C201.917 141.251 202.016 141.869 202.215 142.399C202.418 142.929 202.71 143.344 203.088 143.642C203.472 143.936 203.936 144.082 204.48 144.082C205.049 144.082 205.525 143.931 205.908 143.628C206.292 143.32 206.58 142.901 206.775 142.371C206.973 141.836 207.073 141.227 207.073 140.545C207.073 139.868 206.976 139.267 206.782 138.741C206.587 138.216 206.299 137.804 205.915 137.506C205.532 137.207 205.053 137.058 204.48 137.058C203.931 137.058 203.465 137.203 203.081 137.491C202.698 137.78 202.407 138.185 202.208 138.706C202.014 139.227 201.917 139.84 201.917 140.545ZM222.048 146.199C221.025 146.199 220.116 146.024 219.321 145.673C218.53 145.323 217.905 144.835 217.446 144.21C216.986 143.585 216.743 142.863 216.714 142.044H219.385C219.408 142.437 219.538 142.78 219.775 143.074C220.012 143.363 220.327 143.588 220.72 143.749C221.113 143.91 221.553 143.99 222.041 143.99C222.562 143.99 223.023 143.9 223.426 143.72C223.828 143.536 224.143 143.28 224.37 142.953C224.598 142.626 224.709 142.25 224.704 141.824C224.709 141.384 224.595 140.995 224.363 140.659C224.131 140.323 223.795 140.06 223.355 139.871C222.919 139.681 222.394 139.587 221.778 139.587H220.493V137.555H221.778C222.285 137.555 222.727 137.468 223.106 137.293C223.49 137.117 223.79 136.871 224.008 136.554C224.226 136.232 224.333 135.86 224.328 135.439C224.333 135.027 224.24 134.67 224.051 134.366C223.866 134.059 223.603 133.82 223.262 133.649C222.926 133.479 222.531 133.393 222.076 133.393C221.631 133.393 221.219 133.474 220.841 133.635C220.462 133.796 220.156 134.026 219.924 134.324C219.692 134.617 219.569 134.968 219.555 135.375H217.02C217.038 134.561 217.273 133.846 217.723 133.23C218.177 132.61 218.783 132.127 219.541 131.781C220.298 131.431 221.148 131.256 222.091 131.256C223.061 131.256 223.904 131.438 224.619 131.803C225.339 132.162 225.895 132.648 226.288 133.259C226.681 133.869 226.877 134.544 226.877 135.283C226.882 136.102 226.641 136.788 226.153 137.342C225.67 137.896 225.036 138.259 224.25 138.429V138.543C225.272 138.685 226.056 139.063 226.6 139.679C227.15 140.29 227.422 141.05 227.417 141.959C227.417 142.773 227.185 143.502 226.721 144.146C226.262 144.786 225.627 145.287 224.818 145.652C224.013 146.017 223.09 146.199 222.048 146.199ZM235.232 146.277C234.062 146.277 233.058 145.981 232.22 145.389C231.387 144.793 230.745 143.933 230.295 142.811C229.85 141.684 229.628 140.328 229.628 138.741C229.633 137.155 229.857 135.806 230.303 134.693C230.752 133.576 231.394 132.723 232.227 132.136C233.065 131.549 234.067 131.256 235.232 131.256C236.396 131.256 237.398 131.549 238.236 132.136C239.074 132.723 239.715 133.576 240.161 134.693C240.61 135.811 240.835 137.16 240.835 138.741C240.835 140.332 240.61 141.691 240.161 142.818C239.715 143.94 239.074 144.797 238.236 145.389C237.402 145.981 236.401 146.277 235.232 146.277ZM235.232 144.054C236.141 144.054 236.858 143.607 237.384 142.712C237.914 141.812 238.179 140.489 238.179 138.741C238.179 137.586 238.058 136.616 237.817 135.83C237.575 135.044 237.234 134.452 236.794 134.054C236.354 133.652 235.833 133.45 235.232 133.45C234.327 133.45 233.612 133.9 233.087 134.8C232.561 135.695 232.296 137.009 232.291 138.741C232.286 139.902 232.402 140.877 232.639 141.668C232.881 142.458 233.222 143.055 233.662 143.457C234.102 143.855 234.625 144.054 235.232 144.054ZM248.571 146.277C247.402 146.277 246.398 145.981 245.56 145.389C244.727 144.793 244.085 143.933 243.635 142.811C243.19 141.684 242.968 140.328 242.968 138.741C242.972 137.155 243.197 135.806 243.642 134.693C244.092 133.576 244.734 132.723 245.567 132.136C246.405 131.549 247.407 131.256 248.571 131.256C249.736 131.256 250.738 131.549 251.576 132.136C252.414 132.723 253.055 133.576 253.5 134.693C253.95 135.811 254.175 137.16 254.175 138.741C254.175 140.332 253.95 141.691 253.5 142.818C253.055 143.94 252.414 144.797 251.576 145.389C250.742 145.981 249.741 146.277 248.571 146.277ZM248.571 144.054C249.48 144.054 250.198 143.607 250.723 142.712C251.254 141.812 251.519 140.489 251.519 138.741C251.519 137.586 251.398 136.616 251.157 135.83C250.915 135.044 250.574 134.452 250.134 134.054C249.694 133.652 249.173 133.45 248.571 133.45C247.667 133.45 246.952 133.9 246.426 134.8C245.901 135.695 245.636 137.009 245.631 138.741C245.626 139.902 245.742 140.877 245.979 141.668C246.221 142.458 246.561 143.055 247.002 143.457C247.442 143.855 247.965 144.054 248.571 144.054ZM257.581 146.156C257.15 146.156 256.78 146.005 256.473 145.702C256.165 145.399 256.013 145.029 256.018 144.594C256.013 144.168 256.165 143.803 256.473 143.5C256.78 143.197 257.15 143.045 257.581 143.045C257.997 143.045 258.359 143.197 258.667 143.5C258.98 143.803 259.138 144.168 259.143 144.594C259.138 144.883 259.063 145.145 258.916 145.382C258.774 145.619 258.584 145.808 258.348 145.95C258.116 146.088 257.86 146.156 257.581 146.156ZM266.579 146.277C265.41 146.277 264.406 145.981 263.568 145.389C262.734 144.793 262.093 143.933 261.643 142.811C261.198 141.684 260.975 140.328 260.975 138.741C260.98 137.155 261.205 135.806 261.65 134.693C262.1 133.576 262.742 132.723 263.575 132.136C264.413 131.549 265.414 131.256 266.579 131.256C267.744 131.256 268.745 131.549 269.583 132.136C270.422 132.723 271.063 133.576 271.508 134.693C271.958 135.811 272.183 137.16 272.183 138.741C272.183 140.332 271.958 141.691 271.508 142.818C271.063 143.94 270.422 144.797 269.583 145.389C268.75 145.981 267.749 146.277 266.579 146.277ZM266.579 144.054C267.488 144.054 268.206 143.607 268.731 142.712C269.261 141.812 269.527 140.489 269.527 138.741C269.527 137.586 269.406 136.616 269.164 135.83C268.923 135.044 268.582 134.452 268.142 134.054C267.701 133.652 267.181 133.45 266.579 133.45C265.675 133.45 264.96 133.9 264.434 134.8C263.909 135.695 263.644 137.009 263.639 138.741C263.634 139.902 263.75 140.877 263.987 141.668C264.228 142.458 264.569 143.055 265.01 143.457C265.45 143.855 265.973 144.054 266.579 144.054ZM279.919 146.277C278.75 146.277 277.746 145.981 276.908 145.389C276.074 144.793 275.433 143.933 274.983 142.811C274.538 141.684 274.315 140.328 274.315 138.741C274.32 137.155 274.545 135.806 274.99 134.693C275.44 133.576 276.081 132.723 276.915 132.136C277.753 131.549 278.754 131.256 279.919 131.256C281.084 131.256 282.085 131.549 282.923 132.136C283.761 132.723 284.403 133.576 284.848 134.693C285.298 135.811 285.523 137.16 285.523 138.741C285.523 140.332 285.298 141.691 284.848 142.818C284.403 143.94 283.761 144.797 282.923 145.389C282.09 145.981 281.089 146.277 279.919 146.277ZM279.919 144.054C280.828 144.054 281.545 143.607 282.071 142.712C282.601 141.812 282.866 140.489 282.866 138.741C282.866 137.586 282.746 136.616 282.504 135.83C282.263 135.044 281.922 134.452 281.482 134.054C281.041 133.652 280.52 133.45 279.919 133.45C279.015 133.45 278.3 133.9 277.774 134.8C277.249 135.695 276.983 137.009 276.979 138.741C276.974 139.902 277.09 140.877 277.327 141.668C277.568 142.458 277.909 143.055 278.349 143.457C278.79 143.855 279.313 144.054 279.919 144.054ZM293.259 146.277C292.089 146.277 291.086 145.981 290.248 145.389C289.414 144.793 288.773 143.933 288.323 142.811C287.878 141.684 287.655 140.328 287.655 138.741C287.66 137.155 287.885 135.806 288.33 134.693C288.78 133.576 289.421 132.723 290.255 132.136C291.093 131.549 292.094 131.256 293.259 131.256C294.424 131.256 295.425 131.549 296.263 132.136C297.101 132.723 297.743 133.576 298.188 134.693C298.638 135.811 298.863 137.16 298.863 138.741C298.863 140.332 298.638 141.691 298.188 142.818C297.743 143.94 297.101 144.797 296.263 145.389C295.43 145.981 294.428 146.277 293.259 146.277ZM293.259 144.054C294.168 144.054 294.885 143.607 295.411 142.712C295.941 141.812 296.206 140.489 296.206 138.741C296.206 137.586 296.086 136.616 295.844 135.83C295.603 135.044 295.262 134.452 294.821 134.054C294.381 133.652 293.86 133.45 293.259 133.45C292.355 133.45 291.64 133.9 291.114 134.8C290.588 135.695 290.323 137.009 290.319 138.741C290.314 139.902 290.43 140.877 290.667 141.668C290.908 142.458 291.249 143.055 291.689 143.457C292.13 143.855 292.653 144.054 293.259 144.054ZM36.3395 183.453C36.2732 182.833 35.9938 182.35 35.5014 182.004C35.0137 181.659 34.3793 181.486 33.598 181.486C33.0488 181.486 32.5777 181.569 32.1847 181.734C31.7917 181.9 31.491 182.125 31.2827 182.409C31.0743 182.693 30.9678 183.018 30.9631 183.382C30.9631 183.685 31.0317 183.948 31.169 184.17C31.3111 184.393 31.5028 184.582 31.7443 184.739C31.9858 184.89 32.2533 185.018 32.5469 185.122C32.8404 185.226 33.1364 185.314 33.4347 185.385L34.7983 185.726C35.3475 185.854 35.8755 186.027 36.3821 186.244C36.8935 186.462 37.3504 186.737 37.7528 187.068C38.16 187.4 38.482 187.8 38.7188 188.268C38.9555 188.737 39.0739 189.286 39.0739 189.916C39.0739 190.768 38.8561 191.519 38.4205 192.168C37.9848 192.812 37.3551 193.316 36.5312 193.68C35.7121 194.04 34.7202 194.22 33.5554 194.22C32.4238 194.22 31.4413 194.045 30.608 193.695C29.7794 193.344 29.1307 192.833 28.6619 192.161C28.1979 191.488 27.947 190.669 27.9091 189.703H30.5014C30.5393 190.21 30.6955 190.631 30.9702 190.967C31.2448 191.304 31.6023 191.554 32.0426 191.72C32.4877 191.886 32.9848 191.969 33.5341 191.969C34.107 191.969 34.6089 191.884 35.0398 191.713C35.4754 191.538 35.8163 191.296 36.0625 190.989C36.3087 190.676 36.4342 190.312 36.4389 189.895C36.4342 189.516 36.3229 189.204 36.1051 188.957C35.8873 188.706 35.5819 188.498 35.1889 188.332C34.8007 188.162 34.3461 188.01 33.8253 187.878L32.1705 187.452C30.9725 187.144 30.0256 186.678 29.3295 186.053C28.6383 185.423 28.2926 184.587 28.2926 183.545C28.2926 182.688 28.5246 181.938 28.9886 181.294C29.4574 180.65 30.0942 180.151 30.8991 179.795C31.7041 179.436 32.6155 179.256 33.6335 179.256C34.6657 179.256 35.5701 179.436 36.3466 179.795C37.1278 180.151 37.741 180.645 38.1861 181.28C38.6312 181.91 38.8608 182.634 38.875 183.453H36.3395ZM48.2624 189.412V183.091H50.8335V194H48.3406V192.061H48.2269C47.9807 192.672 47.5759 193.171 47.0124 193.56C46.4537 193.948 45.7648 194.142 44.9457 194.142C44.2307 194.142 43.5986 193.983 43.0494 193.666C42.5049 193.344 42.0787 192.878 41.771 192.267C41.4632 191.652 41.3093 190.908 41.3093 190.037V183.091H43.8803V189.639C43.8803 190.33 44.0697 190.88 44.4485 191.287C44.8273 191.694 45.3245 191.898 45.94 191.898C46.3188 191.898 46.6857 191.805 47.0408 191.621C47.396 191.436 47.6871 191.161 47.9144 190.797C48.1464 190.428 48.2624 189.966 48.2624 189.412ZM53.5909 194V179.455H56.1619V184.895H56.2685C56.401 184.63 56.5881 184.348 56.8295 184.05C57.071 183.747 57.3977 183.489 57.8097 183.276C58.2216 183.058 58.7472 182.949 59.3864 182.949C60.2292 182.949 60.9891 183.164 61.6662 183.595C62.348 184.021 62.8878 184.653 63.2855 185.491C63.688 186.325 63.8892 187.348 63.8892 188.56C63.8892 189.758 63.6927 190.776 63.2997 191.614C62.9067 192.452 62.3717 193.091 61.6946 193.531C61.0175 193.972 60.2505 194.192 59.3935 194.192C58.7685 194.192 58.25 194.088 57.8381 193.879C57.4261 193.671 57.0947 193.42 56.8438 193.126C56.5975 192.828 56.4058 192.546 56.2685 192.281H56.1193V194H53.5909ZM56.1122 188.545C56.1122 189.251 56.2116 189.869 56.4105 190.399C56.6141 190.929 56.9053 191.344 57.2841 191.642C57.6676 191.936 58.1316 192.082 58.6761 192.082C59.2443 192.082 59.7202 191.931 60.1037 191.628C60.4872 191.32 60.776 190.901 60.9702 190.371C61.169 189.836 61.2685 189.227 61.2685 188.545C61.2685 187.868 61.1714 187.267 60.9773 186.741C60.7831 186.216 60.4943 185.804 60.1108 185.506C59.7273 185.207 59.2491 185.058 58.6761 185.058C58.1269 185.058 57.6605 185.203 57.277 185.491C56.8935 185.78 56.6023 186.185 56.4034 186.706C56.2093 187.227 56.1122 187.84 56.1122 188.545ZM70.5103 181.663V179.455H82.1154V181.663H77.6197V194H75.006V181.663H70.5103ZM87.4155 194.213C86.3501 194.213 85.4268 193.979 84.6456 193.51C83.8643 193.041 83.2583 192.385 82.8274 191.543C82.4013 190.7 82.1882 189.715 82.1882 188.588C82.1882 187.461 82.4013 186.474 82.8274 185.626C83.2583 184.779 83.8643 184.121 84.6456 183.652C85.4268 183.183 86.3501 182.949 87.4155 182.949C88.4808 182.949 89.4041 183.183 90.1854 183.652C90.9666 184.121 91.5703 184.779 91.9964 185.626C92.4273 186.474 92.6428 187.461 92.6428 188.588C92.6428 189.715 92.4273 190.7 91.9964 191.543C91.5703 192.385 90.9666 193.041 90.1854 193.51C89.4041 193.979 88.4808 194.213 87.4155 194.213ZM87.4297 192.153C88.0073 192.153 88.4903 191.995 88.8786 191.678C89.2668 191.356 89.5556 190.925 89.745 190.385C89.9392 189.845 90.0362 189.244 90.0362 188.581C90.0362 187.913 89.9392 187.31 89.745 186.77C89.5556 186.225 89.2668 185.792 88.8786 185.47C88.4903 185.148 88.0073 184.987 87.4297 184.987C86.8378 184.987 86.3454 185.148 85.9524 185.47C85.5642 185.792 85.273 186.225 85.0788 186.77C84.8894 187.31 84.7947 187.913 84.7947 188.581C84.7947 189.244 84.8894 189.845 85.0788 190.385C85.273 190.925 85.5642 191.356 85.9524 191.678C86.3454 191.995 86.8378 192.153 87.4297 192.153ZM100.272 183.091V185.08H94.0011V183.091H100.272ZM95.5494 180.477H98.1204V190.719C98.1204 191.064 98.1725 191.33 98.2766 191.514C98.3855 191.694 98.5276 191.817 98.7028 191.884C98.878 191.95 99.0721 191.983 99.2852 191.983C99.4461 191.983 99.5929 191.971 99.7255 191.947C99.8628 191.924 99.967 191.902 100.038 191.884L100.471 193.893C100.334 193.941 100.137 193.993 99.8817 194.05C99.6308 194.107 99.323 194.14 98.9585 194.149C98.3145 194.168 97.7345 194.071 97.2184 193.858C96.7023 193.64 96.2927 193.304 95.9897 192.849C95.6914 192.395 95.5446 191.827 95.5494 191.145V180.477ZM105.562 194.22C104.871 194.22 104.248 194.097 103.694 193.851C103.145 193.6 102.709 193.231 102.387 192.743C102.07 192.255 101.911 191.654 101.911 190.939C101.911 190.323 102.025 189.814 102.252 189.412C102.479 189.009 102.79 188.688 103.183 188.446C103.576 188.205 104.018 188.022 104.511 187.899C105.008 187.771 105.522 187.679 106.052 187.622C106.691 187.556 107.21 187.497 107.607 187.445C108.005 187.388 108.294 187.303 108.474 187.189C108.658 187.071 108.751 186.888 108.751 186.642V186.599C108.751 186.064 108.592 185.65 108.275 185.357C107.958 185.063 107.501 184.916 106.904 184.916C106.274 184.916 105.775 185.054 105.406 185.328C105.041 185.603 104.795 185.927 104.667 186.301L102.266 185.96C102.456 185.297 102.768 184.743 103.204 184.298C103.639 183.848 104.172 183.512 104.802 183.29C105.432 183.062 106.128 182.949 106.89 182.949C107.415 182.949 107.939 183.01 108.46 183.134C108.98 183.257 109.456 183.46 109.887 183.744C110.318 184.024 110.664 184.405 110.924 184.888C111.189 185.371 111.322 185.974 111.322 186.699V194H108.85V192.501H108.765C108.609 192.804 108.388 193.089 108.104 193.354C107.825 193.614 107.472 193.825 107.046 193.986C106.625 194.142 106.13 194.22 105.562 194.22ZM106.229 192.331C106.746 192.331 107.193 192.229 107.572 192.026C107.951 191.817 108.242 191.543 108.445 191.202C108.654 190.861 108.758 190.489 108.758 190.087V188.801C108.677 188.867 108.54 188.929 108.346 188.986C108.156 189.043 107.943 189.092 107.707 189.135C107.47 189.178 107.236 189.215 107.004 189.249C106.772 189.282 106.57 189.31 106.4 189.334C106.016 189.386 105.673 189.471 105.37 189.589C105.067 189.708 104.828 189.874 104.653 190.087C104.478 190.295 104.39 190.565 104.39 190.896C104.39 191.37 104.563 191.727 104.908 191.969C105.254 192.21 105.694 192.331 106.229 192.331ZM116.478 179.455V194H113.907V179.455H116.478ZM180.237 192.253C179.806 192.253 179.437 192.101 179.129 191.798C178.821 191.491 178.67 191.121 178.674 190.69C178.67 190.264 178.821 189.9 179.129 189.597C179.437 189.294 179.806 189.142 180.237 189.142C180.654 189.142 181.016 189.294 181.324 189.597C181.636 189.9 181.795 190.264 181.799 190.69C181.795 190.979 181.719 191.242 181.572 191.479C181.43 191.715 181.241 191.905 181.004 192.047C180.772 192.184 180.516 192.253 180.237 192.253ZM180.237 185.044C179.806 185.044 179.437 184.893 179.129 184.589C178.821 184.282 178.67 183.912 178.674 183.482C178.67 183.055 178.821 182.691 179.129 182.388C179.437 182.08 179.806 181.926 180.237 181.926C180.654 181.926 181.016 182.08 181.324 182.388C181.636 182.691 181.795 183.055 181.799 183.482C181.795 183.766 181.719 184.026 181.572 184.263C181.43 184.5 181.241 184.689 181.004 184.831C180.772 184.973 180.516 185.044 180.237 185.044ZM189.528 194V179.455H194.983C196.1 179.455 197.038 179.649 197.795 180.037C198.558 180.425 199.133 180.97 199.521 181.67C199.914 182.366 200.111 183.179 200.111 184.107C200.111 185.039 199.912 185.849 199.514 186.536C199.121 187.217 198.541 187.745 197.774 188.119C197.007 188.489 196.065 188.673 194.947 188.673H191.062V186.486H194.592C195.246 186.486 195.781 186.396 196.197 186.216C196.614 186.031 196.922 185.764 197.121 185.413C197.324 185.058 197.426 184.623 197.426 184.107C197.426 183.59 197.324 183.15 197.121 182.786C196.917 182.416 196.607 182.137 196.19 181.947C195.774 181.753 195.236 181.656 194.578 181.656H192.163V194H189.528ZM197.043 187.409L200.643 194H197.703L194.166 187.409H197.043ZM202.423 198.091V183.091H204.951V184.895H205.1C205.233 184.63 205.42 184.348 205.661 184.05C205.903 183.747 206.229 183.489 206.641 183.276C207.053 183.058 207.579 182.949 208.218 182.949C209.061 182.949 209.821 183.164 210.498 183.595C211.18 184.021 211.719 184.653 212.117 185.491C212.52 186.325 212.721 187.348 212.721 188.56C212.721 189.758 212.524 190.776 212.131 191.614C211.738 192.452 211.203 193.091 210.526 193.531C209.849 193.972 209.082 194.192 208.225 194.192C207.6 194.192 207.082 194.088 206.67 193.879C206.258 193.671 205.926 193.42 205.675 193.126C205.429 192.828 205.237 192.546 205.1 192.281H204.994V198.091H202.423ZM204.944 188.545C204.944 189.251 205.043 189.869 205.242 190.399C205.446 190.929 205.737 191.344 206.116 191.642C206.499 191.936 206.963 192.082 207.508 192.082C208.076 192.082 208.552 191.931 208.935 191.628C209.319 191.32 209.608 190.901 209.802 190.371C210.001 189.836 210.1 189.227 210.1 188.545C210.1 187.868 210.003 187.267 209.809 186.741C209.615 186.216 209.326 185.804 208.942 185.506C208.559 185.207 208.081 185.058 207.508 185.058C206.959 185.058 206.492 185.203 206.109 185.491C205.725 185.78 205.434 186.185 205.235 186.706C205.041 187.227 204.944 187.84 204.944 188.545ZM225.075 194.199C224.053 194.199 223.143 194.024 222.348 193.673C221.557 193.323 220.932 192.835 220.473 192.21C220.014 191.585 219.77 190.863 219.741 190.044H222.412C222.436 190.437 222.566 190.78 222.803 191.074C223.039 191.363 223.354 191.588 223.747 191.749C224.14 191.91 224.58 191.99 225.068 191.99C225.589 191.99 226.051 191.9 226.453 191.72C226.856 191.536 227.17 191.28 227.398 190.953C227.625 190.626 227.736 190.25 227.732 189.824C227.736 189.384 227.623 188.995 227.391 188.659C227.159 188.323 226.822 188.06 226.382 187.871C225.946 187.681 225.421 187.587 224.805 187.587H223.52V185.555H224.805C225.312 185.555 225.755 185.468 226.134 185.293C226.517 185.117 226.818 184.871 227.036 184.554C227.253 184.232 227.36 183.86 227.355 183.439C227.36 183.027 227.268 182.67 227.078 182.366C226.893 182.059 226.631 181.82 226.29 181.649C225.954 181.479 225.558 181.393 225.104 181.393C224.659 181.393 224.247 181.474 223.868 181.635C223.489 181.796 223.184 182.026 222.952 182.324C222.72 182.617 222.597 182.968 222.582 183.375H220.047C220.066 182.561 220.3 181.846 220.75 181.23C221.205 180.61 221.811 180.127 222.568 179.781C223.326 179.431 224.176 179.256 225.118 179.256C226.089 179.256 226.931 179.438 227.646 179.803C228.366 180.162 228.922 180.648 229.315 181.259C229.708 181.869 229.905 182.544 229.905 183.283C229.91 184.102 229.668 184.788 229.18 185.342C228.697 185.896 228.063 186.259 227.277 186.429V186.543C228.3 186.685 229.083 187.063 229.628 187.679C230.177 188.29 230.449 189.05 230.445 189.959C230.445 190.773 230.213 191.502 229.749 192.146C229.289 192.786 228.655 193.287 227.845 193.652C227.04 194.017 226.117 194.199 225.075 194.199ZM238.259 194.277C237.089 194.277 236.086 193.981 235.248 193.389C234.414 192.793 233.773 191.933 233.323 190.811C232.878 189.684 232.655 188.328 232.655 186.741C232.66 185.155 232.885 183.806 233.33 182.693C233.78 181.576 234.421 180.723 235.255 180.136C236.093 179.549 237.094 179.256 238.259 179.256C239.424 179.256 240.425 179.549 241.263 180.136C242.101 180.723 242.743 181.576 243.188 182.693C243.638 183.811 243.863 185.16 243.863 186.741C243.863 188.332 243.638 189.691 243.188 190.818C242.743 191.94 242.101 192.797 241.263 193.389C240.43 193.981 239.428 194.277 238.259 194.277ZM238.259 192.054C239.168 192.054 239.885 191.607 240.411 190.712C240.941 189.812 241.206 188.489 241.206 186.741C241.206 185.586 241.086 184.616 240.844 183.83C240.603 183.044 240.262 182.452 239.821 182.054C239.381 181.652 238.86 181.45 238.259 181.45C237.355 181.45 236.64 181.9 236.114 182.8C235.588 183.695 235.323 185.009 235.319 186.741C235.314 187.902 235.43 188.877 235.667 189.668C235.908 190.458 236.249 191.055 236.689 191.457C237.13 191.855 237.653 192.054 238.259 192.054ZM251.599 194.277C250.429 194.277 249.425 193.981 248.587 193.389C247.754 192.793 247.112 191.933 246.663 190.811C246.218 189.684 245.995 188.328 245.995 186.741C246 185.155 246.225 183.806 246.67 182.693C247.12 181.576 247.761 180.723 248.594 180.136C249.433 179.549 250.434 179.256 251.599 179.256C252.763 179.256 253.765 179.549 254.603 180.136C255.441 180.723 256.083 181.576 256.528 182.693C256.978 183.811 257.202 185.16 257.202 186.741C257.202 188.332 256.978 189.691 256.528 190.818C256.083 191.94 255.441 192.797 254.603 193.389C253.77 193.981 252.768 194.277 251.599 194.277ZM251.599 192.054C252.508 192.054 253.225 191.607 253.751 190.712C254.281 189.812 254.546 188.489 254.546 186.741C254.546 185.586 254.425 184.616 254.184 183.83C253.942 183.044 253.602 182.452 253.161 182.054C252.721 181.652 252.2 181.45 251.599 181.45C250.694 181.45 249.979 181.9 249.454 182.8C248.928 183.695 248.663 185.009 248.658 186.741C248.654 187.902 248.77 188.877 249.006 189.668C249.248 190.458 249.589 191.055 250.029 191.457C250.469 191.855 250.993 192.054 251.599 192.054ZM260.608 194.156C260.177 194.156 259.808 194.005 259.5 193.702C259.192 193.399 259.041 193.029 259.045 192.594C259.041 192.168 259.192 191.803 259.5 191.5C259.808 191.197 260.177 191.045 260.608 191.045C261.025 191.045 261.387 191.197 261.695 191.5C262.007 191.803 262.166 192.168 262.17 192.594C262.166 192.883 262.09 193.145 261.943 193.382C261.801 193.619 261.612 193.808 261.375 193.95C261.143 194.088 260.887 194.156 260.608 194.156ZM269.607 194.277C268.437 194.277 267.433 193.981 266.595 193.389C265.762 192.793 265.12 191.933 264.67 190.811C264.225 189.684 264.003 188.328 264.003 186.741C264.008 185.155 264.232 183.806 264.678 182.693C265.127 181.576 265.769 180.723 266.602 180.136C267.44 179.549 268.442 179.256 269.607 179.256C270.771 179.256 271.773 179.549 272.611 180.136C273.449 180.723 274.09 181.576 274.536 182.693C274.985 183.811 275.21 185.16 275.21 186.741C275.21 188.332 274.985 189.691 274.536 190.818C274.09 191.94 273.449 192.797 272.611 193.389C271.777 193.981 270.776 194.277 269.607 194.277ZM269.607 192.054C270.516 192.054 271.233 191.607 271.759 190.712C272.289 189.812 272.554 188.489 272.554 186.741C272.554 185.586 272.433 184.616 272.192 183.83C271.95 183.044 271.609 182.452 271.169 182.054C270.729 181.652 270.208 181.45 269.607 181.45C268.702 181.45 267.987 181.9 267.462 182.8C266.936 183.695 266.671 185.009 266.666 186.741C266.661 187.902 266.777 188.877 267.014 189.668C267.256 190.458 267.597 191.055 268.037 191.457C268.477 191.855 269 192.054 269.607 192.054ZM282.946 194.277C281.777 194.277 280.773 193.981 279.935 193.389C279.102 192.793 278.46 191.933 278.01 190.811C277.565 189.684 277.343 188.328 277.343 186.741C277.347 185.155 277.572 183.806 278.017 182.693C278.467 181.576 279.109 180.723 279.942 180.136C280.78 179.549 281.782 179.256 282.946 179.256C284.111 179.256 285.113 179.549 285.951 180.136C286.789 180.723 287.43 181.576 287.875 182.693C288.325 183.811 288.55 185.16 288.55 186.741C288.55 188.332 288.325 189.691 287.875 190.818C287.43 191.94 286.789 192.797 285.951 193.389C285.117 193.981 284.116 194.277 282.946 194.277ZM282.946 192.054C283.855 192.054 284.573 191.607 285.098 190.712C285.629 189.812 285.894 188.489 285.894 186.741C285.894 185.586 285.773 184.616 285.532 183.83C285.29 183.044 284.949 182.452 284.509 182.054C284.069 181.652 283.548 181.45 282.946 181.45C282.042 181.45 281.327 181.9 280.801 182.8C280.276 183.695 280.011 185.009 280.006 186.741C280.001 187.902 280.117 188.877 280.354 189.668C280.596 190.458 280.936 191.055 281.377 191.457C281.817 191.855 282.34 192.054 282.946 192.054ZM296.286 194.277C295.117 194.277 294.113 193.981 293.275 193.389C292.442 192.793 291.8 191.933 291.35 190.811C290.905 189.684 290.683 188.328 290.683 186.741C290.687 185.155 290.912 183.806 291.357 182.693C291.807 181.576 292.449 180.723 293.282 180.136C294.12 179.549 295.121 179.256 296.286 179.256C297.451 179.256 298.452 179.549 299.29 180.136C300.129 180.723 300.77 181.576 301.215 182.693C301.665 183.811 301.89 185.16 301.89 186.741C301.89 188.332 301.665 189.691 301.215 190.818C300.77 191.94 300.129 192.797 299.29 193.389C298.457 193.981 297.456 194.277 296.286 194.277ZM296.286 192.054C297.195 192.054 297.913 191.607 298.438 190.712C298.969 189.812 299.234 188.489 299.234 186.741C299.234 185.586 299.113 184.616 298.871 183.83C298.63 183.044 298.289 182.452 297.849 182.054C297.408 181.652 296.888 181.45 296.286 181.45C295.382 181.45 294.667 181.9 294.141 182.8C293.616 183.695 293.351 185.009 293.346 186.741C293.341 187.902 293.457 188.877 293.694 189.668C293.935 190.458 294.276 191.055 294.717 191.457C295.157 191.855 295.68 192.054 296.286 192.054Z" fill="black"/>
</svg>
